M48
; DRILL file {KiCad 9.0.6} date 2026-05-09T18:35:22-0700
; FORMAT={-:-/ absolute / metric / decimal}
; #@! TF.CreationDate,2026-05-09T18:35:22-07:00
; #@! TF.GenerationSoftware,Kicad,Pcbnew,9.0.6
; #@! TF.FileFunction,Plated,1,2,PTH
FMAT,2
METRIC
; #@! TA.AperFunction,Plated,PTH,ComponentDrill
T1C1.000
; #@! TA.AperFunction,Plated,PTH,ComponentDrill
T2C1.016
; #@! TA.AperFunction,Plated,PTH,ComponentDrill
T3C1.500
%
G90
G05
T1
X147.828Y-72.136
X147.828Y-74.676
X147.828Y-77.216
X147.828Y-79.756
X147.828Y-82.296
X147.828Y-84.836
X147.828Y-87.376
X157.455Y-97.013
X157.455Y-99.553
X157.455Y-102.093
X170.673Y-94.513
X170.688Y-102.616
X172.212Y-69.596
X173.213Y-94.513
X173.228Y-102.616
X174.752Y-69.596
X175.753Y-94.513
X193.573Y-50.571
X193.573Y-53.111
X193.573Y-55.651
X193.573Y-58.191
X193.573Y-60.731
X193.573Y-63.271
T2
X165.608Y-42.164
X165.608Y-44.704
X165.608Y-47.244
X165.608Y-49.784
X165.608Y-52.324
X165.608Y-54.864
X165.608Y-57.404
X169.228Y-47.284
X169.228Y-49.784
X180.848Y-42.164
X180.848Y-44.704
X180.848Y-47.244
X180.848Y-49.784
X180.848Y-52.324
X180.848Y-54.864
X180.848Y-57.404
T3
X192.52Y-103.944
X192.584Y-71.94
X199.52Y-103.944
X199.584Y-71.94
M30
