%TF.GenerationSoftware,KiCad,Pcbnew,9.0.6*%
%TF.CreationDate,2026-05-09T18:35:19-07:00*%
%TF.ProjectId,AuraSync_v2,41757261-5379-46e6-935f-76322e6b6963,rev?*%
%TF.SameCoordinates,Original*%
%TF.FileFunction,Copper,L2,Bot*%
%TF.FilePolarity,Positive*%
%FSLAX46Y46*%
G04 Gerber Fmt 4.6, Leading zero omitted, Abs format (unit mm)*
G04 Created by KiCad (PCBNEW 9.0.6) date 2026-05-09 18:35:19*
%MOMM*%
%LPD*%
G01*
G04 APERTURE LIST*
G04 Aperture macros list*
%AMRoundRect*
0 Rectangle with rounded corners*
0 $1 Rounding radius*
0 $2 $3 $4 $5 $6 $7 $8 $9 X,Y pos of 4 corners*
0 Add a 4 corners polygon primitive as box body*
4,1,4,$2,$3,$4,$5,$6,$7,$8,$9,$2,$3,0*
0 Add four circle primitives for the rounded corners*
1,1,$1+$1,$2,$3*
1,1,$1+$1,$4,$5*
1,1,$1+$1,$6,$7*
1,1,$1+$1,$8,$9*
0 Add four rect primitives between the rounded corners*
20,1,$1+$1,$2,$3,$4,$5,0*
20,1,$1+$1,$4,$5,$6,$7,0*
20,1,$1+$1,$6,$7,$8,$9,0*
20,1,$1+$1,$8,$9,$2,$3,0*%
G04 Aperture macros list end*
%TA.AperFunction,ComponentPad*%
%ADD10C,1.700000*%
%TD*%
%TA.AperFunction,ComponentPad*%
%ADD11R,1.700000X1.700000*%
%TD*%
%TA.AperFunction,SMDPad,CuDef*%
%ADD12RoundRect,0.237500X0.250000X0.237500X-0.250000X0.237500X-0.250000X-0.237500X0.250000X-0.237500X0*%
%TD*%
%TA.AperFunction,ComponentPad*%
%ADD13RoundRect,0.450000X1.050000X-2.050000X1.050000X2.050000X-1.050000X2.050000X-1.050000X-2.050000X0*%
%TD*%
%TA.AperFunction,ComponentPad*%
%ADD14O,3.556000X1.778000*%
%TD*%
%TA.AperFunction,ComponentPad*%
%ADD15C,1.905000*%
%TD*%
%TA.AperFunction,Conductor*%
%ADD16C,0.508000*%
%TD*%
G04 APERTURE END LIST*
D10*
%TO.P,Q1,3,C*%
%TO.N,Net-(Atomizer-1-Pin_2)*%
X170673000Y-94513000D03*
%TO.P,Q1,2,B*%
%TO.N,Net-(Q1-B)*%
X173213000Y-94513000D03*
D11*
%TO.P,Q1,1,E*%
%TO.N,GND*%
X175753000Y-94513000D03*
%TD*%
%TO.P,U5,1,SEL*%
%TO.N,GND*%
X193573000Y-50571000D03*
D10*
%TO.P,U5,2,DOUT*%
%TO.N,/DOUT*%
X193573000Y-53111000D03*
%TO.P,U5,3,LRCL*%
%TO.N,/LRCL*%
X193573000Y-55651000D03*
%TO.P,U5,4,BLCK*%
%TO.N,/BLCK*%
X193573000Y-58191000D03*
%TO.P,U5,5,GND*%
%TO.N,GND*%
X193573000Y-60731000D03*
%TO.P,U5,6,3V*%
%TO.N,+3.3V*%
X193573000Y-63271000D03*
%TD*%
%TO.P,U3,7,CS*%
%TO.N,unconnected-(U3-CS-Pad7)*%
X147828000Y-72136000D03*
%TO.P,U3,6,SDI*%
%TO.N,/SDA*%
X147828000Y-74676000D03*
%TO.P,U3,5,SDO*%
%TO.N,unconnected-(U3-SDO-Pad5)*%
X147828000Y-77216000D03*
%TO.P,U3,4,SCK*%
%TO.N,/SCL*%
X147828000Y-79756000D03*
%TO.P,U3,3,GND*%
%TO.N,GND*%
X147828000Y-82296000D03*
%TO.P,U3,2,3Vo*%
%TO.N,unconnected-(U3-3Vo-Pad2)*%
X147828000Y-84836000D03*
D11*
%TO.P,U3,1,VIN*%
%TO.N,+3.3V*%
X147828000Y-87376000D03*
%TD*%
%TO.P,U4,1,VCC*%
%TO.N,+3.3V*%
X157455000Y-102093000D03*
D10*
%TO.P,U4,2,OUT*%
%TO.N,/Signal*%
X157455000Y-99553000D03*
%TO.P,U4,3,GND*%
%TO.N,GND*%
X157455000Y-97013000D03*
%TD*%
D11*
%TO.P,J1,1,Pin_1*%
%TO.N,/BATT+*%
X172212000Y-69596000D03*
D10*
%TO.P,J1,2,Pin_2*%
%TO.N,/BATT-*%
X174752000Y-69596000D03*
%TD*%
D11*
%TO.P,Atomizer-1,1,Pin_1*%
%TO.N,+5V*%
X173228000Y-102616000D03*
D10*
%TO.P,Atomizer-1,2,Pin_2*%
%TO.N,Net-(Atomizer-1-Pin_2)*%
X170688000Y-102616000D03*
%TD*%
D12*
%TO.P,R1,1*%
%TO.N,Net-(Q1-B)*%
X173228000Y-80264000D03*
%TO.P,R1,2*%
%TO.N,/Signal*%
X171403000Y-80264000D03*
%TD*%
D13*
%TO.P,U2,4,VIN-*%
%TO.N,GND*%
X199584000Y-71940000D03*
%TO.P,U2,3,VIN+*%
%TO.N,/BATT+*%
X192584000Y-71940000D03*
%TO.P,U2,2,VOUT-*%
%TO.N,GND*%
X199520000Y-103944000D03*
%TO.P,U2,1,VOUT+*%
%TO.N,+5V*%
X192520000Y-103944000D03*
%TD*%
D14*
%TO.P,U1,1,GPIO1_A0_D0*%
%TO.N,unconnected-(U1-GPIO1_A0_D0-Pad1)*%
X164846000Y-42164000D03*
%TO.P,U1,2,GPIO2_A1_D1*%
%TO.N,unconnected-(U1-GPIO2_A1_D1-Pad2)*%
X164846000Y-44704000D03*
%TO.P,U1,3,GPIO3_A2_D2*%
%TO.N,unconnected-(U1-GPIO3_A2_D2-Pad3)*%
X164846000Y-47244000D03*
%TO.P,U1,4,GPIO4_A3_D3*%
%TO.N,/Signal*%
X164846000Y-49784000D03*
%TO.P,U1,5,GPIO5_A4_D4_SDA*%
%TO.N,/SDA*%
X164846000Y-52324000D03*
%TO.P,U1,6,GPIO6_A5_D5_SCL*%
%TO.N,/SCL*%
X164846000Y-54864000D03*
%TO.P,U1,7,GPIO43_TX_D6*%
%TO.N,unconnected-(U1-GPIO43_TX_D6-Pad7)*%
X164846000Y-57404000D03*
%TO.P,U1,8,GPIO44_RX_D7*%
%TO.N,unconnected-(U1-GPIO44_RX_D7-Pad8)*%
X181610000Y-57404000D03*
%TO.P,U1,9,GPIO7_A8_D8_SCK*%
%TO.N,/BLCK*%
X181610000Y-54864000D03*
%TO.P,U1,10,GPIO8_A9_D9_MISO*%
%TO.N,/LRCL*%
X181610000Y-52324000D03*
%TO.P,U1,11,GPIO9_A10_D10_MOSI*%
%TO.N,/DOUT*%
X181610000Y-49784000D03*
%TO.P,U1,12,3V3*%
%TO.N,+3.3V*%
X181610000Y-47244000D03*
%TO.P,U1,13,GND*%
%TO.N,GND*%
X181610000Y-44704000D03*
%TO.P,U1,14,5V*%
%TO.N,unconnected-(U1-5V-Pad14)*%
X181610000Y-42164000D03*
D15*
%TO.P,U1,15,+BATT*%
%TO.N,/BATT+*%
X169228000Y-49784000D03*
%TO.P,U1,16,-BATT*%
%TO.N,/BATT-*%
X169228000Y-47284000D03*
%TD*%
D16*
%TO.N,GND*%
X164084000Y-38100000D02*
X174244000Y-38100000D01*
X144272000Y-62992000D02*
X161036000Y-46228000D01*
X161036000Y-46228000D02*
X161036000Y-41148000D01*
X174244000Y-38100000D02*
X180848000Y-44704000D01*
X144272000Y-78740000D02*
X144272000Y-62992000D01*
X147828000Y-82296000D02*
X144272000Y-78740000D01*
X161036000Y-41148000D02*
X164084000Y-38100000D01*
%TO.N,/BLCK*%
X189992000Y-54864000D02*
X180848000Y-54864000D01*
X193319000Y-58191000D02*
X189992000Y-54864000D01*
X193573000Y-58191000D02*
X193319000Y-58191000D01*
%TO.N,/LRCL*%
X190246000Y-52324000D02*
X193573000Y-55651000D01*
X180848000Y-52324000D02*
X190246000Y-52324000D01*
%TO.N,/DOUT*%
X190246000Y-49784000D02*
X193573000Y-53111000D01*
X180848000Y-49784000D02*
X190246000Y-49784000D01*
%TO.N,GND*%
X180340000Y-68072000D02*
X199584000Y-68072000D01*
X176784000Y-64516000D02*
X180340000Y-68072000D01*
X199584000Y-68072000D02*
X199584000Y-71940000D01*
X176784000Y-48768000D02*
X176784000Y-64516000D01*
X180848000Y-44704000D02*
X176784000Y-48768000D01*
X193573000Y-50571000D02*
X194056000Y-50571000D01*
%TO.N,+3.3V*%
X203200000Y-107188000D02*
X198628000Y-111760000D01*
X203200000Y-54356000D02*
X203200000Y-107188000D01*
X198628000Y-111760000D02*
X162052000Y-111760000D01*
X196088000Y-47244000D02*
X203200000Y-54356000D01*
X162052000Y-111760000D02*
X157455000Y-107163000D01*
X180848000Y-47244000D02*
X196088000Y-47244000D01*
X157455000Y-107163000D02*
X157455000Y-102093000D01*
%TO.N,Net-(Q1-B)*%
X173213000Y-80279000D02*
X173228000Y-80264000D01*
X173213000Y-94513000D02*
X173213000Y-80279000D01*
%TO.N,Net-(Atomizer-1-Pin_2)*%
X170688000Y-94528000D02*
X170673000Y-94513000D01*
X170688000Y-102616000D02*
X170688000Y-94528000D01*
%TO.N,GND*%
X177011000Y-94513000D02*
X199584000Y-71940000D01*
X175753000Y-94513000D02*
X177011000Y-94513000D01*
%TO.N,Net-(Q1-B)*%
X173228000Y-79756000D02*
X173213000Y-79771000D01*
%TO.N,+5V*%
X191192000Y-102616000D02*
X173228000Y-102616000D01*
X192520000Y-103944000D02*
X191192000Y-102616000D01*
%TO.N,GND*%
X157455000Y-91923000D02*
X147828000Y-82296000D01*
X157455000Y-97013000D02*
X157455000Y-91923000D01*
%TO.N,+3.3V*%
X147828000Y-92466000D02*
X147828000Y-87376000D01*
X157455000Y-102093000D02*
X147828000Y-92466000D01*
%TO.N,/Signal*%
X168673000Y-88335000D02*
X168673000Y-75184000D01*
X157455000Y-99553000D02*
X168673000Y-88335000D01*
%TO.N,GND*%
X199584000Y-103880000D02*
X199520000Y-103944000D01*
X199584000Y-71940000D02*
X199584000Y-103880000D01*
X199584000Y-66742000D02*
X199584000Y-68072000D01*
X193573000Y-60731000D02*
X199584000Y-66742000D01*
%TO.N,/BATT+*%
X174556000Y-71940000D02*
X192584000Y-71940000D01*
X172212000Y-69596000D02*
X174556000Y-71940000D01*
%TO.N,+3.3V*%
X182143000Y-63271000D02*
X178816000Y-59944000D01*
X178816000Y-59944000D02*
X178816000Y-49276000D01*
X178816000Y-49276000D02*
X180848000Y-47244000D01*
X193573000Y-63271000D02*
X182143000Y-63271000D01*
%TO.N,/BATT-*%
X170295006Y-47867006D02*
X169811006Y-47867006D01*
X174752000Y-69596000D02*
X174752000Y-52324000D01*
X174752000Y-52324000D02*
X170295006Y-47867006D01*
X169811006Y-47867006D02*
X169228000Y-47284000D01*
%TO.N,GND*%
X195809000Y-60731000D02*
X193573000Y-60731000D01*
X197104000Y-59436000D02*
X195809000Y-60731000D01*
X195859000Y-50571000D02*
X197104000Y-51816000D01*
X193573000Y-50571000D02*
X195859000Y-50571000D01*
X197104000Y-51816000D02*
X197104000Y-59436000D01*
%TO.N,/Signal*%
X168673000Y-80264000D02*
X171403000Y-80264000D01*
X168673000Y-52849000D02*
X168673000Y-75184000D01*
X165608000Y-49784000D02*
X168673000Y-52849000D01*
%TO.N,/BATT+*%
X169228000Y-50864000D02*
X172212000Y-53848000D01*
X169228000Y-49784000D02*
X169228000Y-50864000D01*
%TO.N,/SCL*%
X153817000Y-62591000D02*
X153817000Y-73767000D01*
X153817000Y-73767000D02*
X147828000Y-79756000D01*
X161544000Y-54864000D02*
X153817000Y-62591000D01*
X165608000Y-54864000D02*
X161544000Y-54864000D01*
%TO.N,/SDA*%
X152400000Y-70104000D02*
X147828000Y-74676000D01*
X152400000Y-60960000D02*
X152400000Y-70104000D01*
X161036000Y-52324000D02*
X152400000Y-60960000D01*
X165608000Y-52324000D02*
X161036000Y-52324000D01*
%TO.N,/BATT+*%
X172212000Y-53848000D02*
X172212000Y-69596000D01*
%TD*%
%TA.AperFunction,Conductor*%
%TO.N,GND*%
G36*
X167254534Y-52517824D02*
G01*
X167305585Y-52548609D01*
X167882181Y-53125205D01*
X167915666Y-53186528D01*
X167918500Y-53212886D01*
X167918500Y-87971112D01*
X167898815Y-88038151D01*
X167882181Y-88058793D01*
X159008424Y-96932549D01*
X158947101Y-96966034D01*
X158877409Y-96961050D01*
X158821476Y-96919178D01*
X158798270Y-96864266D01*
X158771757Y-96696872D01*
X158771757Y-96696869D01*
X158706095Y-96494782D01*
X158609624Y-96305449D01*
X158570270Y-96251282D01*
X158570269Y-96251282D01*
X157937962Y-96883590D01*
X157920925Y-96820007D01*
X157855099Y-96705993D01*
X157762007Y-96612901D01*
X157647993Y-96547075D01*
X157584409Y-96530037D01*
X158216716Y-95897728D01*
X158162550Y-95858375D01*
X157973217Y-95761904D01*
X157771129Y-95696242D01*
X157561246Y-95663000D01*
X157348754Y-95663000D01*
X157138872Y-95696242D01*
X157138869Y-95696242D01*
X156936782Y-95761904D01*
X156747441Y-95858380D01*
X156747440Y-95858380D01*
X156693282Y-95897727D01*
X156693282Y-95897728D01*
X157325591Y-96530037D01*
X157262007Y-96547075D01*
X157147993Y-96612901D01*
X157054901Y-96705993D01*
X156989075Y-96820007D01*
X156972037Y-96883591D01*
X156339728Y-96251282D01*
X156339727Y-96251282D01*
X156300380Y-96305439D01*
X156203904Y-96494782D01*
X156138242Y-96696869D01*
X156138242Y-96696872D01*
X156105000Y-96906753D01*
X156105000Y-97119246D01*
X156138242Y-97329127D01*
X156138242Y-97329130D01*
X156203904Y-97531217D01*
X156300375Y-97720550D01*
X156339728Y-97774716D01*
X156972037Y-97142408D01*
X156989075Y-97205993D01*
X157054901Y-97320007D01*
X157147993Y-97413099D01*
X157262007Y-97478925D01*
X157325590Y-97495962D01*
X156693282Y-98128269D01*
X156693282Y-98128270D01*
X156747452Y-98167626D01*
X156747451Y-98167626D01*
X156756495Y-98172234D01*
X156807292Y-98220208D01*
X156824087Y-98288029D01*
X156801550Y-98354164D01*
X156756499Y-98393202D01*
X156747182Y-98397949D01*
X156575213Y-98522890D01*
X156424890Y-98673213D01*
X156299951Y-98845179D01*
X156203444Y-99034585D01*
X156137753Y-99236760D01*
X156111292Y-99403830D01*
X156081363Y-99466965D01*
X156022051Y-99503896D01*
X155952189Y-99502898D01*
X155901138Y-99472113D01*
X148618819Y-92189794D01*
X148585334Y-92128471D01*
X148582500Y-92102113D01*
X148582500Y-88850499D01*
X148602185Y-88783460D01*
X148654989Y-88737705D01*
X148706500Y-88726499D01*
X148725871Y-88726499D01*
X148725872Y-88726499D01*
X148785483Y-88720091D01*
X148920331Y-88669796D01*
X149035546Y-88583546D01*
X149121796Y-88468331D01*
X149172091Y-88333483D01*
X149178500Y-88273873D01*
X149178499Y-86478128D01*
X149172091Y-86418517D01*
X149121796Y-86283669D01*
X149121795Y-86283668D01*
X149121793Y-86283664D01*
X149035547Y-86168455D01*
X149035544Y-86168452D01*
X148920335Y-86082206D01*
X148920328Y-86082202D01*
X148788917Y-86033189D01*
X148732983Y-85991318D01*
X148708566Y-85925853D01*
X148723418Y-85857580D01*
X148744563Y-85829332D01*
X148858104Y-85715792D01*
X148983051Y-85543816D01*
X149079557Y-85354412D01*
X149145246Y-85152243D01*
X149178500Y-84942287D01*
X149178500Y-84729713D01*
X149145246Y-84519757D01*
X149079557Y-84317588D01*
X148983051Y-84128184D01*
X148983049Y-84128181D01*
X148983048Y-84128179D01*
X148858109Y-83956213D01*
X148707786Y-83805890D01*
X148535817Y-83680949D01*
X148526504Y-83676204D01*
X148475707Y-83628230D01*
X148458912Y-83560409D01*
X148481449Y-83494274D01*
X148526507Y-83455232D01*
X148535555Y-83450622D01*
X148589716Y-83411270D01*
X148589717Y-83411270D01*
X147957408Y-82778962D01*
X148020993Y-82761925D01*
X148135007Y-82696099D01*
X148228099Y-82603007D01*
X148293925Y-82488993D01*
X148310962Y-82425409D01*
X148943270Y-83057717D01*
X148943270Y-83057716D01*
X148982622Y-83003554D01*
X149079095Y-82814217D01*
X149144757Y-82612130D01*
X149144757Y-82612127D01*
X149178000Y-82402246D01*
X149178000Y-82189753D01*
X149144757Y-81979872D01*
X149144757Y-81979869D01*
X149079095Y-81777782D01*
X148982624Y-81588449D01*
X148943270Y-81534282D01*
X148943269Y-81534282D01*
X148310962Y-82166590D01*
X148293925Y-82103007D01*
X148228099Y-81988993D01*
X148135007Y-81895901D01*
X148020993Y-81830075D01*
X147957409Y-81813037D01*
X148589716Y-81180728D01*
X148535547Y-81141373D01*
X148535547Y-81141372D01*
X148526500Y-81136763D01*
X148475706Y-81088788D01*
X148458912Y-81020966D01*
X148481451Y-80954832D01*
X148526508Y-80915793D01*
X148535816Y-80911051D01*
X148615007Y-80853515D01*
X148707786Y-80786109D01*
X148707788Y-80786106D01*
X148707792Y-80786104D01*
X148858104Y-80635792D01*
X148858106Y-80635788D01*
X148858109Y-80635786D01*
X148983048Y-80463820D01*
X148983047Y-80463820D01*
X148983051Y-80463816D01*
X149079557Y-80274412D01*
X149145246Y-80072243D01*
X149178500Y-79862287D01*
X149178500Y-79649713D01*
X149164156Y-79559151D01*
X149173110Y-79489861D01*
X149198945Y-79452078D01*
X154403059Y-74247966D01*
X154485630Y-74124389D01*
X154542505Y-73987079D01*
X154571501Y-73841312D01*
X154571501Y-73692688D01*
X154571501Y-73687578D01*
X154571500Y-73687552D01*
X154571500Y-62954886D01*
X154591185Y-62887847D01*
X154607819Y-62867205D01*
X161820205Y-55654819D01*
X161881528Y-55621334D01*
X161907886Y-55618500D01*
X162724479Y-55618500D01*
X162791518Y-55638185D01*
X162824794Y-55669611D01*
X162897148Y-55769199D01*
X162897150Y-55769201D01*
X163051806Y-55923857D01*
X163202969Y-56033682D01*
X163245635Y-56089011D01*
X163251614Y-56158625D01*
X163219009Y-56220420D01*
X163202969Y-56234318D01*
X163051806Y-56344142D01*
X162897142Y-56498806D01*
X162768595Y-56675739D01*
X162669298Y-56870616D01*
X162669297Y-56870619D01*
X162601714Y-57078623D01*
X162567500Y-57294638D01*
X162567500Y-57513361D01*
X162601714Y-57729376D01*
X162669297Y-57937380D01*
X162669298Y-57937383D01*
X162768595Y-58132260D01*
X162897142Y-58309193D01*
X163051806Y-58463857D01*
X163217374Y-58584147D01*
X163228743Y-58592407D01*
X163356132Y-58657315D01*
X163423616Y-58691701D01*
X163423619Y-58691702D01*
X163527621Y-58725493D01*
X163631625Y-58759286D01*
X163731672Y-58775132D01*
X163847639Y-58793500D01*
X163847644Y-58793500D01*
X165844361Y-58793500D01*
X165949082Y-58776912D01*
X166060375Y-58759286D01*
X166268383Y-58691701D01*
X166463257Y-58592407D01*
X166580482Y-58507239D01*
X166640193Y-58463857D01*
X166640195Y-58463854D01*
X166640199Y-58463852D01*
X166794852Y-58309199D01*
X166794854Y-58309195D01*
X166794857Y-58309193D01*
X166883977Y-58186528D01*
X166923407Y-58132257D01*
X167022701Y-57937383D01*
X167090286Y-57729375D01*
X167107912Y-57618082D01*
X167124500Y-57513361D01*
X167124500Y-57294638D01*
X167103315Y-57160890D01*
X167090286Y-57078625D01*
X167022701Y-56870617D01*
X167022701Y-56870616D01*
X166987547Y-56801623D01*
X166923407Y-56675743D01*
X166885500Y-56623568D01*
X166794857Y-56498806D01*
X166640199Y-56344148D01*
X166577965Y-56298933D01*
X166489028Y-56234316D01*
X166446364Y-56178989D01*
X166440385Y-56109376D01*
X166472990Y-56047580D01*
X166489023Y-56033686D01*
X166640199Y-55923852D01*
X166794852Y-55769199D01*
X166794854Y-55769195D01*
X166794857Y-55769193D01*
X166852305Y-55690121D01*
X166923407Y-55592257D01*
X167022701Y-55397383D01*
X167090286Y-55189375D01*
X167110158Y-55063908D01*
X167124500Y-54973361D01*
X167124500Y-54754638D01*
X167103315Y-54620890D01*
X167090286Y-54538625D01*
X167022701Y-54330617D01*
X167022701Y-54330616D01*
X166953789Y-54195371D01*
X166923407Y-54135743D01*
X166915024Y-54124205D01*
X166794857Y-53958806D01*
X166640199Y-53804148D01*
X166598274Y-53773688D01*
X166489028Y-53694316D01*
X166446364Y-53638989D01*
X166440385Y-53569376D01*
X166472990Y-53507580D01*
X166489023Y-53493686D01*
X166640199Y-53383852D01*
X166794852Y-53229199D01*
X166794854Y-53229195D01*
X166794857Y-53229193D01*
X166857116Y-53143499D01*
X166923407Y-53052257D01*
X167022701Y-52857383D01*
X167090286Y-52649375D01*
X167095431Y-52616892D01*
X167125360Y-52553757D01*
X167184672Y-52516826D01*
X167254534Y-52517824D01*
G37*
%TD.AperFunction*%
%TA.AperFunction,Conductor*%
G36*
X189695152Y-55638185D02*
G01*
X189715794Y-55654819D01*
X192186181Y-58125205D01*
X192219666Y-58186528D01*
X192222500Y-58212886D01*
X192222500Y-58297286D01*
X192243556Y-58430232D01*
X192255754Y-58507243D01*
X192315688Y-58691701D01*
X192321444Y-58709414D01*
X192417951Y-58898820D01*
X192542890Y-59070786D01*
X192693213Y-59221109D01*
X192865179Y-59346048D01*
X192865181Y-59346049D01*
X192865184Y-59346051D01*
X192874493Y-59350794D01*
X192925290Y-59398766D01*
X192942087Y-59466587D01*
X192919552Y-59532722D01*
X192874505Y-59571760D01*
X192865446Y-59576376D01*
X192865440Y-59576380D01*
X192811282Y-59615727D01*
X192811282Y-59615728D01*
X193443591Y-60248037D01*
X193380007Y-60265075D01*
X193265993Y-60330901D01*
X193172901Y-60423993D01*
X193107075Y-60538007D01*
X193090037Y-60601590D01*
X192457728Y-59969282D01*
X192457727Y-59969282D01*
X192418380Y-60023439D01*
X192321904Y-60212782D01*
X192256242Y-60414869D01*
X192256242Y-60414872D01*
X192223000Y-60624753D01*
X192223000Y-60837246D01*
X192256242Y-61047127D01*
X192256242Y-61047130D01*
X192321904Y-61249217D01*
X192418375Y-61438550D01*
X192457728Y-61492716D01*
X193090037Y-60860408D01*
X193107075Y-60923993D01*
X193172901Y-61038007D01*
X193265993Y-61131099D01*
X193380007Y-61196925D01*
X193443590Y-61213962D01*
X192811282Y-61846269D01*
X192811282Y-61846270D01*
X192865452Y-61885626D01*
X192865451Y-61885626D01*
X192874495Y-61890234D01*
X192925292Y-61938208D01*
X192942087Y-62006029D01*
X192919550Y-62072164D01*
X192874499Y-62111202D01*
X192865182Y-62115949D01*
X192693213Y-62240890D01*
X192542896Y-62391207D01*
X192489004Y-62465385D01*
X192433674Y-62508051D01*
X192388685Y-62516500D01*
X182506886Y-62516500D01*
X182439847Y-62496815D01*
X182419205Y-62480181D01*
X180646587Y-60707562D01*
X179606819Y-59667794D01*
X179573334Y-59606471D01*
X179570500Y-59580113D01*
X179570500Y-58517913D01*
X179590185Y-58450874D01*
X179642989Y-58405119D01*
X179712147Y-58395175D01*
X179775703Y-58424200D01*
X179782181Y-58430232D01*
X179815806Y-58463857D01*
X179981374Y-58584147D01*
X179992743Y-58592407D01*
X180120132Y-58657315D01*
X180187616Y-58691701D01*
X180187619Y-58691702D01*
X180291621Y-58725493D01*
X180395625Y-58759286D01*
X180495672Y-58775132D01*
X180611639Y-58793500D01*
X180611644Y-58793500D01*
X182608361Y-58793500D01*
X182713082Y-58776912D01*
X182824375Y-58759286D01*
X183032383Y-58691701D01*
X183227257Y-58592407D01*
X183344482Y-58507239D01*
X183404193Y-58463857D01*
X183404195Y-58463854D01*
X183404199Y-58463852D01*
X183558852Y-58309199D01*
X183558854Y-58309195D01*
X183558857Y-58309193D01*
X183647977Y-58186528D01*
X183687407Y-58132257D01*
X183786701Y-57937383D01*
X183854286Y-57729375D01*
X183871912Y-57618082D01*
X183888500Y-57513361D01*
X183888500Y-57294638D01*
X183867315Y-57160890D01*
X183854286Y-57078625D01*
X183786701Y-56870617D01*
X183786701Y-56870616D01*
X183751547Y-56801623D01*
X183687407Y-56675743D01*
X183649500Y-56623568D01*
X183558857Y-56498806D01*
X183404199Y-56344148D01*
X183341965Y-56298933D01*
X183253028Y-56234316D01*
X183210364Y-56178989D01*
X183204385Y-56109376D01*
X183236990Y-56047580D01*
X183253023Y-56033686D01*
X183404199Y-55923852D01*
X183558852Y-55769199D01*
X183631204Y-55669612D01*
X183686532Y-55626949D01*
X183731521Y-55618500D01*
X189628113Y-55618500D01*
X189695152Y-55638185D01*
G37*
%TD.AperFunction*%
%TA.AperFunction,Conductor*%
G36*
X173368982Y-35197259D02*
G01*
X173545065Y-35202382D01*
X174659275Y-35234802D01*
X174662848Y-35234959D01*
X175951444Y-35310011D01*
X175955035Y-35310272D01*
X177240902Y-35422771D01*
X177244474Y-35423136D01*
X178526612Y-35572995D01*
X178530085Y-35573453D01*
X179807320Y-35760540D01*
X179810858Y-35761112D01*
X181082071Y-35985261D01*
X181085527Y-35985922D01*
X182349683Y-36246950D01*
X182353176Y-36247724D01*
X183609201Y-36545407D01*
X183612696Y-36546289D01*
X184859507Y-36880371D01*
X184862967Y-36881353D01*
X186099541Y-37251559D01*
X186102981Y-37252644D01*
X187328242Y-37658651D01*
X187331646Y-37659834D01*
X188544596Y-38101311D01*
X188547938Y-38102583D01*
X189747540Y-38579155D01*
X189750862Y-38580530D01*
X190936143Y-39091810D01*
X190939356Y-39093252D01*
X192109250Y-39638783D01*
X192112496Y-39640355D01*
X193265947Y-40219640D01*
X193269147Y-40221305D01*
X194405333Y-40833932D01*
X194408482Y-40835690D01*
X194650805Y-40975595D01*
X195526351Y-41481091D01*
X195529411Y-41482918D01*
X196433495Y-42040565D01*
X196628029Y-42160555D01*
X196631062Y-42162487D01*
X197709541Y-42871814D01*
X197712408Y-42873760D01*
X198769880Y-43614210D01*
X198772747Y-43616281D01*
X199808148Y-44387108D01*
X199810964Y-44389268D01*
X200807696Y-45177381D01*
X200823496Y-45189874D01*
X200826283Y-45192143D01*
X201815130Y-46021884D01*
X201817825Y-46024215D01*
X202606689Y-46726244D01*
X202782087Y-46882335D01*
X202784732Y-46884759D01*
X203580041Y-47635094D01*
X203723624Y-47770558D01*
X203726211Y-47773071D01*
X204638928Y-48685788D01*
X204641441Y-48688375D01*
X205514371Y-49613627D01*
X205527227Y-49627253D01*
X205529654Y-49629901D01*
X206370560Y-50574819D01*
X206387770Y-50594157D01*
X206390119Y-50596875D01*
X207219847Y-51585706D01*
X207222123Y-51588501D01*
X207956936Y-52517824D01*
X208022714Y-52601013D01*
X208024899Y-52603861D01*
X208576061Y-53344200D01*
X208795709Y-53639239D01*
X208797798Y-53642131D01*
X209538229Y-54699576D01*
X209540195Y-54702474D01*
X210012176Y-55420086D01*
X210249506Y-55780928D01*
X210251444Y-55783970D01*
X210929070Y-56882570D01*
X210930919Y-56885667D01*
X211576309Y-58003517D01*
X211578067Y-58006666D01*
X212190694Y-59142852D01*
X212192359Y-59146052D01*
X212771644Y-60299503D01*
X212773216Y-60302749D01*
X213318729Y-61472604D01*
X213320206Y-61475895D01*
X213831464Y-62661127D01*
X213832844Y-62664459D01*
X214309410Y-63864046D01*
X214310693Y-63867418D01*
X214752164Y-65080351D01*
X214753348Y-65083757D01*
X215159355Y-66309018D01*
X215160440Y-66312458D01*
X215530646Y-67549032D01*
X215531630Y-67552502D01*
X215865709Y-68799300D01*
X215866592Y-68802798D01*
X216164272Y-70058809D01*
X216165052Y-70062330D01*
X216426068Y-71326429D01*
X216426746Y-71329972D01*
X216650885Y-72601130D01*
X216651460Y-72604690D01*
X216838539Y-73881862D01*
X216839010Y-73885439D01*
X216988862Y-75167517D01*
X216989228Y-75171105D01*
X217101726Y-76456961D01*
X217101988Y-76460558D01*
X217177039Y-77749134D01*
X217177197Y-77752737D01*
X217214741Y-79043016D01*
X217214793Y-79046623D01*
X217214793Y-80337376D01*
X217214741Y-80340983D01*
X217177197Y-81631262D01*
X217177039Y-81634865D01*
X217101988Y-82923441D01*
X217101726Y-82927038D01*
X216989228Y-84212894D01*
X216988862Y-84216482D01*
X216839010Y-85498560D01*
X216838539Y-85502137D01*
X216651460Y-86779309D01*
X216650885Y-86782869D01*
X216426746Y-88054027D01*
X216426068Y-88057570D01*
X216165052Y-89321669D01*
X216164272Y-89325190D01*
X215866592Y-90581201D01*
X215865709Y-90584699D01*
X215531630Y-91831497D01*
X215530646Y-91834967D01*
X215160440Y-93071541D01*
X215159355Y-93074981D01*
X214753348Y-94300242D01*
X214752164Y-94303648D01*
X214310693Y-95516581D01*
X214309410Y-95519953D01*
X213832844Y-96719540D01*
X213831464Y-96722872D01*
X213320206Y-97908104D01*
X213318729Y-97911395D01*
X212773216Y-99081250D01*
X212771644Y-99084496D01*
X212192359Y-100237947D01*
X212190694Y-100241147D01*
X211578067Y-101377333D01*
X211576309Y-101380482D01*
X210930919Y-102498332D01*
X210929070Y-102501429D01*
X210251444Y-103600029D01*
X210249506Y-103603071D01*
X209540214Y-104681497D01*
X209538207Y-104684454D01*
X208838658Y-105683515D01*
X208797821Y-105741836D01*
X208795709Y-105744760D01*
X208024909Y-106780125D01*
X208022714Y-106782986D01*
X207222125Y-107795496D01*
X207219847Y-107798293D01*
X206390129Y-108787113D01*
X206387770Y-108789842D01*
X205529664Y-109754087D01*
X205527227Y-109756746D01*
X204641441Y-110695624D01*
X204638928Y-110698211D01*
X203726211Y-111610928D01*
X203723624Y-111613441D01*
X202784746Y-112499227D01*
X202782087Y-112501664D01*
X201817842Y-113359770D01*
X201815113Y-113362129D01*
X200826293Y-114191847D01*
X200823496Y-114194125D01*
X199810986Y-114994714D01*
X199808125Y-114996909D01*
X198772760Y-115767709D01*
X198769835Y-115769821D01*
X197712454Y-116510207D01*
X197709497Y-116512214D01*
X196631071Y-117221506D01*
X196628029Y-117223444D01*
X195529429Y-117901070D01*
X195526332Y-117902919D01*
X194408482Y-118548309D01*
X194405333Y-118550067D01*
X193269147Y-119162694D01*
X193265947Y-119164359D01*
X192112496Y-119743644D01*
X192109250Y-119745216D01*
X190939395Y-120290729D01*
X190936104Y-120292206D01*
X189750872Y-120803464D01*
X189747540Y-120804844D01*
X188547953Y-121281410D01*
X188544581Y-121282693D01*
X187331648Y-121724164D01*
X187328242Y-121725348D01*
X186102981Y-122131355D01*
X186099541Y-122132440D01*
X184862967Y-122502646D01*
X184859497Y-122503630D01*
X183612699Y-122837709D01*
X183609201Y-122838592D01*
X182353190Y-123136272D01*
X182349669Y-123137052D01*
X181085570Y-123398068D01*
X181082027Y-123398746D01*
X179810869Y-123622885D01*
X179807309Y-123623460D01*
X178530137Y-123810539D01*
X178526560Y-123811010D01*
X177244482Y-123960862D01*
X177240894Y-123961228D01*
X175955038Y-124073726D01*
X175951441Y-124073988D01*
X174662865Y-124149039D01*
X174659262Y-124149197D01*
X173368983Y-124186741D01*
X173365376Y-124186793D01*
X172074624Y-124186793D01*
X172071017Y-124186741D01*
X170780737Y-124149197D01*
X170777134Y-124149039D01*
X169488558Y-124073988D01*
X169484961Y-124073726D01*
X168199105Y-123961228D01*
X168195517Y-123960862D01*
X166913439Y-123811010D01*
X166909862Y-123810539D01*
X165632690Y-123623460D01*
X165629130Y-123622885D01*
X164357972Y-123398746D01*
X164354429Y-123398068D01*
X163090330Y-123137052D01*
X163086809Y-123136272D01*
X161830798Y-122838592D01*
X161827300Y-122837709D01*
X160580502Y-122503630D01*
X160577032Y-122502646D01*
X159340458Y-122132440D01*
X159337018Y-122131355D01*
X158111757Y-121725348D01*
X158108351Y-121724164D01*
X156895418Y-121282693D01*
X156892046Y-121281410D01*
X155692459Y-120804844D01*
X155689127Y-120803464D01*
X154503895Y-120292206D01*
X154500604Y-120290729D01*
X153330749Y-119745216D01*
X153327503Y-119743644D01*
X152174052Y-119164359D01*
X152170852Y-119162694D01*
X151034666Y-118550067D01*
X151031517Y-118548309D01*
X149913667Y-117902919D01*
X149910570Y-117901070D01*
X148811970Y-117223444D01*
X148808928Y-117221506D01*
X148558526Y-117056814D01*
X147730474Y-116512195D01*
X147727576Y-116510229D01*
X146670131Y-115769798D01*
X146667239Y-115767709D01*
X145631874Y-114996909D01*
X145629013Y-114994714D01*
X144616503Y-114194125D01*
X144613706Y-114191847D01*
X143624886Y-113362129D01*
X143622157Y-113359770D01*
X143489860Y-113242036D01*
X142657901Y-112501654D01*
X142655253Y-112499227D01*
X142640707Y-112485504D01*
X141716375Y-111613441D01*
X141713788Y-111610928D01*
X140801071Y-110698211D01*
X140798558Y-110695624D01*
X139912772Y-109756746D01*
X139910335Y-109754087D01*
X139877462Y-109717148D01*
X139052215Y-108789825D01*
X139049870Y-108787113D01*
X138987023Y-108712215D01*
X138220143Y-107798283D01*
X138217874Y-107795496D01*
X137417268Y-106782964D01*
X137415108Y-106780148D01*
X136644281Y-105744747D01*
X136642210Y-105741880D01*
X136091458Y-104955325D01*
X139675873Y-104955325D01*
X139675873Y-105356674D01*
X139710852Y-105756489D01*
X139710852Y-105756493D01*
X139780542Y-106151722D01*
X139780546Y-106151739D01*
X139884415Y-106539388D01*
X139884418Y-106539398D01*
X139884419Y-106539399D01*
X140010861Y-106886794D01*
X140021692Y-106916550D01*
X140191292Y-107280259D01*
X140191304Y-107280283D01*
X140265088Y-107408080D01*
X140391973Y-107627850D01*
X140391977Y-107627856D01*
X140391984Y-107627867D01*
X140622173Y-107956612D01*
X140695193Y-108043633D01*
X140880151Y-108264057D01*
X141163943Y-108547849D01*
X141291775Y-108655113D01*
X141471387Y-108805826D01*
X141800132Y-109036015D01*
X141800139Y-109036019D01*
X141800150Y-109036027D01*
X142147723Y-109236699D01*
X142147737Y-109236705D01*
X142147740Y-109236707D01*
X142511449Y-109406307D01*
X142511454Y-109406308D01*
X142511463Y-109406313D01*
X142888601Y-109543581D01*
X142888607Y-109543582D01*
X142888611Y-109543584D01*
X142994179Y-109571870D01*
X143276268Y-109647456D01*
X143671513Y-109717148D01*
X144071327Y-109752126D01*
X144071328Y-109752127D01*
X144071329Y-109752127D01*
X144472672Y-109752127D01*
X144472672Y-109752126D01*
X144872487Y-109717148D01*
X145267732Y-109647456D01*
X145655399Y-109543581D01*
X146032537Y-109406313D01*
X146396277Y-109236699D01*
X146743850Y-109036027D01*
X147072611Y-108805827D01*
X147380057Y-108547849D01*
X147663849Y-108264057D01*
X147921827Y-107956611D01*
X148152027Y-107627850D01*
X148352699Y-107280277D01*
X148522313Y-106916537D01*
X148659581Y-106539399D01*
X148763456Y-106151732D01*
X148833148Y-105756487D01*
X148868127Y-105356671D01*
X148868127Y-104955329D01*
X148833148Y-104555513D01*
X148828043Y-104526563D01*
X148809623Y-104422097D01*
X148763456Y-104160268D01*
X148659581Y-103772601D01*
X148522313Y-103395463D01*
X148522308Y-103395454D01*
X148522307Y-103395449D01*
X148352707Y-103031740D01*
X148352695Y-103031716D01*
X148295262Y-102932239D01*
X148152027Y-102684150D01*
X148152019Y-102684139D01*
X148152015Y-102684132D01*
X147921826Y-102355387D01*
X147705506Y-102097588D01*
X147663849Y-102047943D01*
X147380057Y-101764151D01*
X147266201Y-101668614D01*
X147072612Y-101506173D01*
X146743867Y-101275984D01*
X146743856Y-101275977D01*
X146743850Y-101275973D01*
X146500574Y-101135517D01*
X146396283Y-101075304D01*
X146396259Y-101075292D01*
X146032550Y-100905692D01*
X146032539Y-100905688D01*
X146032537Y-100905687D01*
X145655399Y-100768419D01*
X145655398Y-100768418D01*
X145655388Y-100768415D01*
X145267739Y-100664546D01*
X145267742Y-100664546D01*
X145267732Y-100664544D01*
X145267726Y-100664542D01*
X145267722Y-100664542D01*
X144872491Y-100594852D01*
X144472674Y-100559873D01*
X144472671Y-100559873D01*
X144071329Y-100559873D01*
X144071325Y-100559873D01*
X143671510Y-100594852D01*
X143671506Y-100594852D01*
X143276277Y-100664542D01*
X143276260Y-100664546D01*
X142888611Y-100768415D01*
X142511449Y-100905692D01*
X142147740Y-101075292D01*
X142147716Y-101075304D01*
X141800158Y-101275968D01*
X141800132Y-101275984D01*
X141471387Y-101506173D01*
X141163940Y-101764153D01*
X140880153Y-102047940D01*
X140622173Y-102355387D01*
X140391984Y-102684132D01*
X140391968Y-102684158D01*
X140191304Y-103031716D01*
X140191292Y-103031740D01*
X140021692Y-103395449D01*
X139884415Y-103772611D01*
X139780546Y-104160260D01*
X139780542Y-104160277D01*
X139710852Y-104555506D01*
X139710852Y-104555510D01*
X139675873Y-104955325D01*
X136091458Y-104955325D01*
X135901781Y-104684439D01*
X135899814Y-104681540D01*
X135190487Y-103603062D01*
X135188555Y-103600029D01*
X135181593Y-103588742D01*
X134510918Y-102501411D01*
X134509080Y-102498332D01*
X134505532Y-102492187D01*
X133982286Y-101585896D01*
X133863690Y-101380482D01*
X133861932Y-101377333D01*
X133249305Y-100241147D01*
X133247640Y-100237947D01*
X132668355Y-99084496D01*
X132666783Y-99081250D01*
X132645023Y-99034585D01*
X132121252Y-97911356D01*
X132119810Y-97908143D01*
X131608530Y-96722862D01*
X131607155Y-96719540D01*
X131598150Y-96696872D01*
X131130583Y-95519938D01*
X131129306Y-95516581D01*
X131112487Y-95470372D01*
X130687834Y-94303646D01*
X130686651Y-94300242D01*
X130280644Y-93074981D01*
X130279559Y-93071541D01*
X129909353Y-91834967D01*
X129908369Y-91831497D01*
X129574290Y-90584699D01*
X129573407Y-90581201D01*
X129275727Y-89325190D01*
X129274947Y-89321669D01*
X129154368Y-88737705D01*
X129013922Y-88057527D01*
X129013261Y-88054071D01*
X128789112Y-86782858D01*
X128788539Y-86779309D01*
X128601453Y-85502085D01*
X128600995Y-85498612D01*
X128451136Y-84216474D01*
X128450771Y-84212894D01*
X128443359Y-84128179D01*
X128338272Y-82927035D01*
X128338011Y-82923441D01*
X128295415Y-82192091D01*
X128274680Y-81836080D01*
X128262959Y-81634848D01*
X128262802Y-81631261D01*
X128261556Y-81588449D01*
X128225259Y-80340982D01*
X128225207Y-80337376D01*
X128225207Y-79046623D01*
X128225259Y-79043017D01*
X128241312Y-78491312D01*
X128262802Y-77752721D01*
X128262960Y-77749134D01*
X128263818Y-77734414D01*
X128338011Y-76460550D01*
X128338273Y-76456961D01*
X128450772Y-75171090D01*
X128451137Y-75167517D01*
X128462878Y-75067064D01*
X128600996Y-73885378D01*
X128601451Y-73881923D01*
X128788542Y-72604668D01*
X128789114Y-72601130D01*
X128802352Y-72526055D01*
X128889870Y-72029713D01*
X146477500Y-72029713D01*
X146477500Y-72242286D01*
X146505799Y-72420963D01*
X146510754Y-72452243D01*
X146561567Y-72608630D01*
X146576444Y-72654414D01*
X146672951Y-72843820D01*
X146797890Y-73015786D01*
X146948213Y-73166109D01*
X147120182Y-73291050D01*
X147128946Y-73295516D01*
X147179742Y-73343491D01*
X147196536Y-73411312D01*
X147173998Y-73477447D01*
X147128946Y-73516484D01*
X147120182Y-73520949D01*
X146948213Y-73645890D01*
X146797890Y-73796213D01*
X146672951Y-73968179D01*
X146576444Y-74157585D01*
X146510753Y-74359760D01*
X146477500Y-74569713D01*
X146477500Y-74782286D01*
X146502558Y-74940500D01*
X146510754Y-74992243D01*
X146568280Y-75169290D01*
X146576444Y-75194414D01*
X146672951Y-75383820D01*
X146797890Y-75555786D01*
X146948213Y-75706109D01*
X147120182Y-75831050D01*
X147128946Y-75835516D01*
X147179742Y-75883491D01*
X147196536Y-75951312D01*
X147173998Y-76017447D01*
X147128946Y-76056484D01*
X147120182Y-76060949D01*
X146948213Y-76185890D01*
X146797890Y-76336213D01*
X146672951Y-76508179D01*
X146576444Y-76697585D01*
X146510753Y-76899760D01*
X146484292Y-77066828D01*
X146477500Y-77109713D01*
X146477500Y-77322287D01*
X146510754Y-77532243D01*
X146567564Y-77707086D01*
X146576444Y-77734414D01*
X146672951Y-77923820D01*
X146797890Y-78095786D01*
X146948213Y-78246109D01*
X147120182Y-78371050D01*
X147128946Y-78375516D01*
X147179742Y-78423491D01*
X147196536Y-78491312D01*
X147173998Y-78557447D01*
X147128946Y-78596484D01*
X147120182Y-78600949D01*
X146948213Y-78725890D01*
X146797890Y-78876213D01*
X146672951Y-79048179D01*
X146576444Y-79237585D01*
X146510753Y-79439760D01*
X146487603Y-79585927D01*
X146477500Y-79649713D01*
X146477500Y-79862287D01*
X146510754Y-80072243D01*
X146574841Y-80269483D01*
X146576444Y-80274414D01*
X146672951Y-80463820D01*
X146797890Y-80635786D01*
X146948213Y-80786109D01*
X147120179Y-80911048D01*
X147120181Y-80911049D01*
X147120184Y-80911051D01*
X147129493Y-80915794D01*
X147180290Y-80963766D01*
X147197087Y-81031587D01*
X147174552Y-81097722D01*
X147129505Y-81136760D01*
X147120446Y-81141376D01*
X147120440Y-81141380D01*
X147066282Y-81180727D01*
X147066282Y-81180728D01*
X147698591Y-81813037D01*
X147635007Y-81830075D01*
X147520993Y-81895901D01*
X147427901Y-81988993D01*
X147362075Y-82103007D01*
X147345037Y-82166591D01*
X146712728Y-81534282D01*
X146712727Y-81534282D01*
X146673380Y-81588439D01*
X146576904Y-81777782D01*
X146511242Y-81979869D01*
X146511242Y-81979872D01*
X146478000Y-82189753D01*
X146478000Y-82402246D01*
X146511242Y-82612127D01*
X146511242Y-82612130D01*
X146576904Y-82814217D01*
X146673375Y-83003550D01*
X146712728Y-83057716D01*
X147345037Y-82425408D01*
X147362075Y-82488993D01*
X147427901Y-82603007D01*
X147520993Y-82696099D01*
X147635007Y-82761925D01*
X147698590Y-82778962D01*
X147066282Y-83411269D01*
X147066282Y-83411270D01*
X147120452Y-83450626D01*
X147120451Y-83450626D01*
X147129495Y-83455234D01*
X147180292Y-83503208D01*
X147197087Y-83571029D01*
X147174550Y-83637164D01*
X147129499Y-83676202D01*
X147120182Y-83680949D01*
X146948213Y-83805890D01*
X146797890Y-83956213D01*
X146672951Y-84128179D01*
X146576444Y-84317585D01*
X146510753Y-84519760D01*
X146477500Y-84729713D01*
X146477500Y-84942286D01*
X146510753Y-85152239D01*
X146576444Y-85354414D01*
X146672951Y-85543820D01*
X146797890Y-85715786D01*
X146911430Y-85829326D01*
X146944915Y-85890649D01*
X146939931Y-85960341D01*
X146898059Y-86016274D01*
X146867083Y-86033189D01*
X146735669Y-86082203D01*
X146735664Y-86082206D01*
X146620455Y-86168452D01*
X146620452Y-86168455D01*
X146534206Y-86283664D01*
X146534202Y-86283671D01*
X146483908Y-86418517D01*
X146477501Y-86478116D01*
X146477501Y-86478123D01*
X146477500Y-86478135D01*
X146477500Y-88273870D01*
X146477501Y-88273876D01*
X146483908Y-88333483D01*
X146534202Y-88468328D01*
X146534206Y-88468335D01*
X146620452Y-88583544D01*
X146620455Y-88583547D01*
X146735664Y-88669793D01*
X146735671Y-88669797D01*
X146780618Y-88686561D01*
X146870517Y-88720091D01*
X146930127Y-88726500D01*
X146949497Y-88726499D01*
X147016535Y-88746181D01*
X147062292Y-88798983D01*
X147073500Y-88850499D01*
X147073500Y-92386552D01*
X147073499Y-92386578D01*
X147073499Y-92391688D01*
X147073499Y-92540312D01*
X147073499Y-92540314D01*
X147073498Y-92540314D01*
X147102493Y-92686073D01*
X147102496Y-92686083D01*
X147159366Y-92823381D01*
X147159372Y-92823392D01*
X147241942Y-92946968D01*
X147241943Y-92946969D01*
X156068181Y-101773206D01*
X156101666Y-101834529D01*
X156104500Y-101860887D01*
X156104500Y-102990870D01*
X156104501Y-102990876D01*
X156110908Y-103050483D01*
X156161202Y-103185328D01*
X156161206Y-103185335D01*
X156247452Y-103300544D01*
X156247455Y-103300547D01*
X156362664Y-103386793D01*
X156362671Y-103386797D01*
X156371755Y-103390185D01*
X156497517Y-103437091D01*
X156557127Y-103443500D01*
X156576497Y-103443499D01*
X156643535Y-103463181D01*
X156689292Y-103515983D01*
X156700500Y-103567499D01*
X156700500Y-107083552D01*
X156700499Y-107083578D01*
X156700499Y-107237314D01*
X156709047Y-107280283D01*
X156724684Y-107358894D01*
X156729495Y-107383080D01*
X156753053Y-107439955D01*
X156786370Y-107520389D01*
X156803075Y-107545390D01*
X156868942Y-107643968D01*
X156868943Y-107643969D01*
X161461600Y-112236624D01*
X161461621Y-112236647D01*
X161571029Y-112346055D01*
X161571032Y-112346057D01*
X161571034Y-112346059D01*
X161653605Y-112401230D01*
X161694611Y-112428630D01*
X161775045Y-112461946D01*
X161831920Y-112485505D01*
X161831929Y-112485506D01*
X161831930Y-112485507D01*
X161856103Y-112490315D01*
X161856110Y-112490316D01*
X161977686Y-112514501D01*
X161977688Y-112514501D01*
X162132426Y-112514501D01*
X162132446Y-112514500D01*
X198547554Y-112514500D01*
X198547574Y-112514501D01*
X198553688Y-112514501D01*
X198702314Y-112514501D01*
X198739009Y-112507200D01*
X198823894Y-112490315D01*
X198848080Y-112485505D01*
X198904955Y-112461946D01*
X198985389Y-112428630D01*
X199108966Y-112346059D01*
X203680963Y-107774060D01*
X203680966Y-107774059D01*
X203786059Y-107668966D01*
X203868629Y-107545390D01*
X203925505Y-107408080D01*
X203954500Y-107262312D01*
X203954500Y-79559499D01*
X206827500Y-79559499D01*
X206827500Y-79952500D01*
X206861751Y-80343995D01*
X206861751Y-80343999D01*
X206916017Y-80651753D01*
X206929993Y-80731015D01*
X207031707Y-81110616D01*
X207031708Y-81110618D01*
X207031708Y-81110619D01*
X207166124Y-81479921D01*
X207332195Y-81836062D01*
X207332207Y-81836086D01*
X207528695Y-82176412D01*
X207528704Y-82176427D01*
X207754115Y-82498347D01*
X207920050Y-82696099D01*
X208006722Y-82799391D01*
X208284609Y-83077278D01*
X208372019Y-83150624D01*
X208585652Y-83329884D01*
X208585658Y-83329888D01*
X208585659Y-83329889D01*
X208907579Y-83555300D01*
X209247920Y-83751796D01*
X209247934Y-83751802D01*
X209247937Y-83751804D01*
X209604078Y-83917875D01*
X209604083Y-83917876D01*
X209604092Y-83917881D01*
X209973384Y-84052293D01*
X210352985Y-84154007D01*
X210740007Y-84222249D01*
X211131502Y-84256499D01*
X211131503Y-84256500D01*
X211131504Y-84256500D01*
X211524497Y-84256500D01*
X211524497Y-84256499D01*
X211915993Y-84222249D01*
X212303015Y-84154007D01*
X212682616Y-84052293D01*
X213051908Y-83917881D01*
X213408080Y-83751796D01*
X213748421Y-83555300D01*
X214070341Y-83329889D01*
X214371391Y-83077278D01*
X214649278Y-82799391D01*
X214901889Y-82498341D01*
X215127300Y-82176421D01*
X215323796Y-81836080D01*
X215489881Y-81479908D01*
X215624293Y-81110616D01*
X215726007Y-80731015D01*
X215794249Y-80343993D01*
X215828500Y-79952496D01*
X215828500Y-79559504D01*
X215794249Y-79168007D01*
X215726007Y-78780985D01*
X215624293Y-78401384D01*
X215489881Y-78032092D01*
X215489876Y-78032083D01*
X215489875Y-78032078D01*
X215323804Y-77675937D01*
X215323792Y-77675913D01*
X215240844Y-77532243D01*
X215127300Y-77335579D01*
X214901889Y-77013659D01*
X214901888Y-77013658D01*
X214901884Y-77013652D01*
X214649275Y-76712606D01*
X214371393Y-76434724D01*
X214070347Y-76182115D01*
X213748427Y-75956704D01*
X213748424Y-75956702D01*
X213748421Y-75956700D01*
X213621619Y-75883491D01*
X213408086Y-75760207D01*
X213408062Y-75760195D01*
X213051921Y-75594124D01*
X213051910Y-75594120D01*
X213051908Y-75594119D01*
X212682616Y-75459707D01*
X212441960Y-75395223D01*
X212303016Y-75357993D01*
X212303005Y-75357991D01*
X211915997Y-75289751D01*
X211524500Y-75255500D01*
X211524496Y-75255500D01*
X211131504Y-75255500D01*
X211131499Y-75255500D01*
X210740004Y-75289751D01*
X210740000Y-75289751D01*
X210352994Y-75357991D01*
X210352983Y-75357993D01*
X210149555Y-75412502D01*
X209973384Y-75459707D01*
X209973381Y-75459708D01*
X209973380Y-75459708D01*
X209604078Y-75594124D01*
X209247937Y-75760195D01*
X209247913Y-75760207D01*
X208907587Y-75956695D01*
X208907572Y-75956704D01*
X208585652Y-76182115D01*
X208284606Y-76434724D01*
X208006724Y-76712606D01*
X207754115Y-77013652D01*
X207528704Y-77335572D01*
X207528695Y-77335587D01*
X207332207Y-77675913D01*
X207332195Y-77675937D01*
X207166124Y-78032078D01*
X207042748Y-78371050D01*
X207031707Y-78401384D01*
X206989890Y-78557447D01*
X206929993Y-78780983D01*
X206929991Y-78780994D01*
X206861751Y-79168000D01*
X206861751Y-79168004D01*
X206827500Y-79559499D01*
X203954500Y-79559499D01*
X203954500Y-54436446D01*
X203954501Y-54436425D01*
X203954501Y-54281685D01*
X203926017Y-54138495D01*
X203925505Y-54135921D01*
X203925431Y-54135743D01*
X203925429Y-54135739D01*
X203925425Y-54135728D01*
X203925426Y-54135727D01*
X203925369Y-54135594D01*
X203924578Y-54133685D01*
X203897404Y-54068079D01*
X203868630Y-53998611D01*
X203841230Y-53957605D01*
X203786059Y-53875034D01*
X203786057Y-53875032D01*
X203786055Y-53875029D01*
X203676647Y-53765621D01*
X203676624Y-53765600D01*
X196568969Y-46657943D01*
X196568968Y-46657942D01*
X196527773Y-46630417D01*
X196445389Y-46575370D01*
X196445386Y-46575368D01*
X196445385Y-46575368D01*
X196364955Y-46542053D01*
X196308080Y-46518495D01*
X196283894Y-46513684D01*
X196162314Y-46489499D01*
X196162312Y-46489499D01*
X196013688Y-46489499D01*
X196007574Y-46489499D01*
X196007554Y-46489500D01*
X183731521Y-46489500D01*
X183664482Y-46469815D01*
X183631205Y-46438388D01*
X183558852Y-46338801D01*
X183404199Y-46184148D01*
X183404197Y-46184146D01*
X183404192Y-46184142D01*
X183252605Y-46074008D01*
X183209939Y-46018678D01*
X183203960Y-45949065D01*
X183236565Y-45887270D01*
X183252605Y-45873371D01*
X183403873Y-45763469D01*
X183558471Y-45608871D01*
X183558475Y-45608866D01*
X183686976Y-45431998D01*
X183786237Y-45237191D01*
X183786238Y-45237188D01*
X183853798Y-45029258D01*
X183865718Y-44954000D01*
X181290251Y-44954000D01*
X181321381Y-44900081D01*
X181356000Y-44770880D01*
X181356000Y-44637120D01*
X181321381Y-44507919D01*
X181290251Y-44454000D01*
X183865718Y-44454000D01*
X183853798Y-44378741D01*
X183786238Y-44170811D01*
X183786237Y-44170808D01*
X183686976Y-43976001D01*
X183558475Y-43799133D01*
X183558471Y-43799128D01*
X183403871Y-43644528D01*
X183403866Y-43644524D01*
X183252605Y-43534627D01*
X183209939Y-43479297D01*
X183203960Y-43409684D01*
X183236565Y-43347889D01*
X183252599Y-43333994D01*
X183404199Y-43223852D01*
X183558852Y-43069199D01*
X183558854Y-43069195D01*
X183558857Y-43069193D01*
X183615229Y-42991601D01*
X183687407Y-42892257D01*
X183786701Y-42697383D01*
X183854286Y-42489375D01*
X183871912Y-42378082D01*
X183888500Y-42273361D01*
X183888500Y-42054638D01*
X183868595Y-41928971D01*
X183854286Y-41838625D01*
X183786701Y-41630617D01*
X183786701Y-41630616D01*
X183752315Y-41563132D01*
X183687407Y-41435743D01*
X183679147Y-41424374D01*
X183558857Y-41258806D01*
X183404193Y-41104142D01*
X183227260Y-40975595D01*
X183227259Y-40975594D01*
X183227257Y-40975593D01*
X183164825Y-40943782D01*
X183032383Y-40876298D01*
X183032380Y-40876297D01*
X182824376Y-40808714D01*
X182608361Y-40774500D01*
X182608356Y-40774500D01*
X180611644Y-40774500D01*
X180611639Y-40774500D01*
X180395623Y-40808714D01*
X180187619Y-40876297D01*
X180187616Y-40876298D01*
X179992739Y-40975595D01*
X179815806Y-41104142D01*
X179661142Y-41258806D01*
X179532595Y-41435739D01*
X179433298Y-41630616D01*
X179433297Y-41630619D01*
X179365714Y-41838623D01*
X179331500Y-42054638D01*
X179331500Y-42273361D01*
X179365714Y-42489376D01*
X179433297Y-42697380D01*
X179433298Y-42697383D01*
X179485473Y-42799779D01*
X179522670Y-42872783D01*
X179532595Y-42892260D01*
X179661142Y-43069193D01*
X179815802Y-43223853D01*
X179815807Y-43223857D01*
X179967394Y-43333991D01*
X180010060Y-43389320D01*
X180016039Y-43458934D01*
X179983434Y-43520729D01*
X179967394Y-43534627D01*
X179816133Y-43644524D01*
X179816128Y-43644528D01*
X179661528Y-43799128D01*
X179661524Y-43799133D01*
X179533023Y-43976001D01*
X179433762Y-44170808D01*
X179433761Y-44170811D01*
X179366201Y-44378741D01*
X179354282Y-44454000D01*
X180405749Y-44454000D01*
X180374619Y-44507919D01*
X180340000Y-44637120D01*
X180340000Y-44770880D01*
X180374619Y-44900081D01*
X180405749Y-44954000D01*
X179354282Y-44954000D01*
X179366201Y-45029258D01*
X179433761Y-45237188D01*
X179433762Y-45237191D01*
X179533023Y-45431998D01*
X179661524Y-45608866D01*
X179661528Y-45608871D01*
X179816128Y-45763471D01*
X179816133Y-45763475D01*
X179967394Y-45873372D01*
X180010060Y-45928701D01*
X180016039Y-45998315D01*
X179983434Y-46060110D01*
X179967394Y-46074008D01*
X179815807Y-46184142D01*
X179815802Y-46184146D01*
X179661142Y-46338806D01*
X179532595Y-46515739D01*
X179433298Y-46710616D01*
X179433297Y-46710619D01*
X179365714Y-46918623D01*
X179331500Y-47134638D01*
X179331500Y-47353361D01*
X179365714Y-47569378D01*
X179366852Y-47574118D01*
X179364616Y-47574654D01*
X179366190Y-47635094D01*
X179334025Y-47690948D01*
X178229942Y-48795031D01*
X178147368Y-48918614D01*
X178114053Y-48999045D01*
X178090630Y-49055594D01*
X178090575Y-49055728D01*
X178090496Y-49055915D01*
X178090493Y-49055927D01*
X178061499Y-49201685D01*
X178061499Y-49356425D01*
X178061500Y-49356446D01*
X178061500Y-59864552D01*
X178061499Y-59864578D01*
X178061499Y-59869688D01*
X178061499Y-60018312D01*
X178061499Y-60018314D01*
X178061498Y-60018314D01*
X178090493Y-60164073D01*
X178090496Y-60164083D01*
X178147366Y-60301381D01*
X178147372Y-60301392D01*
X178229942Y-60424968D01*
X178229943Y-60424969D01*
X181552600Y-63747624D01*
X181552621Y-63747647D01*
X181662031Y-63857057D01*
X181662034Y-63857059D01*
X181739444Y-63908782D01*
X181785611Y-63939630D01*
X181866045Y-63972946D01*
X181922920Y-63996505D01*
X181922929Y-63996506D01*
X181922930Y-63996507D01*
X181947103Y-64001315D01*
X181947110Y-64001316D01*
X182068686Y-64025501D01*
X182068688Y-64025501D01*
X182223426Y-64025501D01*
X182223446Y-64025500D01*
X192388685Y-64025500D01*
X192455724Y-64045185D01*
X192489004Y-64076615D01*
X192542896Y-64150792D01*
X192693213Y-64301109D01*
X192865179Y-64426048D01*
X192865181Y-64426049D01*
X192865184Y-64426051D01*
X193054588Y-64522557D01*
X193256757Y-64588246D01*
X193466713Y-64621500D01*
X193466714Y-64621500D01*
X193679286Y-64621500D01*
X193679287Y-64621500D01*
X193889243Y-64588246D01*
X194091412Y-64522557D01*
X194280816Y-64426051D01*
X194302789Y-64410086D01*
X194452786Y-64301109D01*
X194452788Y-64301106D01*
X194452792Y-64301104D01*
X194603104Y-64150792D01*
X194603106Y-64150788D01*
X194603109Y-64150786D01*
X194728048Y-63978820D01*
X194728047Y-63978820D01*
X194728051Y-63978816D01*
X194824557Y-63789412D01*
X194890246Y-63587243D01*
X194923500Y-63377287D01*
X194923500Y-63164713D01*
X194890246Y-62954757D01*
X194824557Y-62752588D01*
X194728051Y-62563184D01*
X194728049Y-62563181D01*
X194728048Y-62563179D01*
X194603109Y-62391213D01*
X194452786Y-62240890D01*
X194280817Y-62115949D01*
X194271504Y-62111204D01*
X194220707Y-62063230D01*
X194203912Y-61995409D01*
X194226449Y-61929274D01*
X194271507Y-61890232D01*
X194280555Y-61885622D01*
X194334716Y-61846270D01*
X194334717Y-61846270D01*
X193702408Y-61213962D01*
X193765993Y-61196925D01*
X193880007Y-61131099D01*
X193973099Y-61038007D01*
X194038925Y-60923993D01*
X194055962Y-60860408D01*
X194688270Y-61492717D01*
X194688270Y-61492716D01*
X194727622Y-61438554D01*
X194824095Y-61249217D01*
X194889757Y-61047130D01*
X194889757Y-61047127D01*
X194923000Y-60837246D01*
X194923000Y-60624753D01*
X194889757Y-60414872D01*
X194889757Y-60414869D01*
X194824095Y-60212782D01*
X194727624Y-60023449D01*
X194688270Y-59969282D01*
X194688269Y-59969282D01*
X194055962Y-60601590D01*
X194038925Y-60538007D01*
X193973099Y-60423993D01*
X193880007Y-60330901D01*
X193765993Y-60265075D01*
X193702409Y-60248037D01*
X194334716Y-59615728D01*
X194280547Y-59576373D01*
X194280547Y-59576372D01*
X194271500Y-59571763D01*
X194220706Y-59523788D01*
X194203912Y-59455966D01*
X194226451Y-59389832D01*
X194271508Y-59350793D01*
X194280816Y-59346051D01*
X194360007Y-59288515D01*
X194452786Y-59221109D01*
X194452788Y-59221106D01*
X194452792Y-59221104D01*
X194603104Y-59070792D01*
X194603106Y-59070788D01*
X194603109Y-59070786D01*
X194728048Y-58898820D01*
X194728047Y-58898820D01*
X194728051Y-58898816D01*
X194824557Y-58709412D01*
X194890246Y-58507243D01*
X194923500Y-58297287D01*
X194923500Y-58084713D01*
X194890246Y-57874757D01*
X194824557Y-57672588D01*
X194728051Y-57483184D01*
X194728049Y-57483181D01*
X194728048Y-57483179D01*
X194603109Y-57311213D01*
X194452786Y-57160890D01*
X194280820Y-57035951D01*
X194280115Y-57035591D01*
X194272054Y-57031485D01*
X194221259Y-56983512D01*
X194204463Y-56915692D01*
X194226999Y-56849556D01*
X194272054Y-56810515D01*
X194280816Y-56806051D01*
X194379128Y-56734624D01*
X194452786Y-56681109D01*
X194452788Y-56681106D01*
X194452792Y-56681104D01*
X194603104Y-56530792D01*
X194603106Y-56530788D01*
X194603109Y-56530786D01*
X194728048Y-56358820D01*
X194728047Y-56358820D01*
X194728051Y-56358816D01*
X194824557Y-56169412D01*
X194890246Y-55967243D01*
X194923500Y-55757287D01*
X194923500Y-55544713D01*
X194890246Y-55334757D01*
X194824557Y-55132588D01*
X194728051Y-54943184D01*
X194728049Y-54943181D01*
X194728048Y-54943179D01*
X194603109Y-54771213D01*
X194452786Y-54620890D01*
X194280820Y-54495951D01*
X194280115Y-54495591D01*
X194272054Y-54491485D01*
X194221259Y-54443512D01*
X194204463Y-54375692D01*
X194226999Y-54309556D01*
X194272054Y-54270515D01*
X194280816Y-54266051D01*
X194302789Y-54250086D01*
X194452786Y-54141109D01*
X194452788Y-54141106D01*
X194452792Y-54141104D01*
X194603104Y-53990792D01*
X194603106Y-53990788D01*
X194603109Y-53990786D01*
X194728048Y-53818820D01*
X194728047Y-53818820D01*
X194728051Y-53818816D01*
X194824557Y-53629412D01*
X194890246Y-53427243D01*
X194923500Y-53217287D01*
X194923500Y-53004713D01*
X194890246Y-52794757D01*
X194824557Y-52592588D01*
X194728051Y-52403184D01*
X194728049Y-52403181D01*
X194728048Y-52403179D01*
X194603109Y-52231213D01*
X194489181Y-52117285D01*
X194455696Y-52055962D01*
X194460680Y-51986270D01*
X194502552Y-51930337D01*
X194533529Y-51913422D01*
X194665086Y-51864354D01*
X194665093Y-51864350D01*
X194780187Y-51778190D01*
X194780190Y-51778187D01*
X194866350Y-51663093D01*
X194866354Y-51663086D01*
X194916596Y-51528379D01*
X194916598Y-51528372D01*
X194922999Y-51468844D01*
X194923000Y-51468827D01*
X194923000Y-50821000D01*
X194006012Y-50821000D01*
X194038925Y-50763993D01*
X194073000Y-50636826D01*
X194073000Y-50505174D01*
X194038925Y-50378007D01*
X194006012Y-50321000D01*
X194923000Y-50321000D01*
X194923000Y-49673172D01*
X194922999Y-49673155D01*
X194916598Y-49613627D01*
X194916596Y-49613620D01*
X194866354Y-49478913D01*
X194866350Y-49478906D01*
X194780190Y-49363812D01*
X194780187Y-49363809D01*
X194665093Y-49277649D01*
X194665086Y-49277645D01*
X194530379Y-49227403D01*
X194530372Y-49227401D01*
X194470844Y-49221000D01*
X193823000Y-49221000D01*
X193823000Y-50137988D01*
X193765993Y-50105075D01*
X193638826Y-50071000D01*
X193507174Y-50071000D01*
X193380007Y-50105075D01*
X193323000Y-50137988D01*
X193323000Y-49221000D01*
X192675155Y-49221000D01*
X192615627Y-49227401D01*
X192615620Y-49227403D01*
X192480913Y-49277645D01*
X192480906Y-49277649D01*
X192365812Y-49363809D01*
X192365809Y-49363812D01*
X192279649Y-49478906D01*
X192279645Y-49478913D01*
X192229403Y-49613620D01*
X192229401Y-49613627D01*
X192223000Y-49673155D01*
X192223000Y-50394612D01*
X192203315Y-50461651D01*
X192150511Y-50507406D01*
X192081353Y-50517350D01*
X192017797Y-50488325D01*
X192011319Y-50482293D01*
X190726968Y-49197942D01*
X190685773Y-49170417D01*
X190603389Y-49115370D01*
X190603386Y-49115368D01*
X190603385Y-49115368D01*
X190522955Y-49082053D01*
X190466080Y-49058495D01*
X190441894Y-49053684D01*
X190320314Y-49029499D01*
X190320312Y-49029499D01*
X190171688Y-49029499D01*
X190165574Y-49029499D01*
X190165554Y-49029500D01*
X183731521Y-49029500D01*
X183664482Y-49009815D01*
X183631205Y-48978388D01*
X183558852Y-48878801D01*
X183404199Y-48724148D01*
X183253028Y-48614316D01*
X183210364Y-48558989D01*
X183204385Y-48489376D01*
X183236990Y-48427580D01*
X183253023Y-48413686D01*
X183404199Y-48303852D01*
X183558852Y-48149199D01*
X183631204Y-48049612D01*
X183686532Y-48006949D01*
X183731521Y-47998500D01*
X195724113Y-47998500D01*
X195791152Y-48018185D01*
X195811794Y-48034819D01*
X202409181Y-54632205D01*
X202442666Y-54693528D01*
X202445500Y-54719886D01*
X202445500Y-106824113D01*
X202425815Y-106891152D01*
X202409181Y-106911794D01*
X198351794Y-110969181D01*
X198290471Y-111002666D01*
X198264113Y-111005500D01*
X162415886Y-111005500D01*
X162348847Y-110985815D01*
X162328205Y-110969181D01*
X158245819Y-106886794D01*
X158212334Y-106825471D01*
X158209500Y-106799113D01*
X158209500Y-103567499D01*
X158229185Y-103500460D01*
X158281989Y-103454705D01*
X158333500Y-103443499D01*
X158352871Y-103443499D01*
X158352872Y-103443499D01*
X158412483Y-103437091D01*
X158547331Y-103386796D01*
X158662546Y-103300546D01*
X158748796Y-103185331D01*
X158799091Y-103050483D01*
X158805500Y-102990873D01*
X158805499Y-101195128D01*
X158799091Y-101135517D01*
X158784451Y-101096266D01*
X158748797Y-101000671D01*
X158748793Y-101000664D01*
X158662547Y-100885455D01*
X158662544Y-100885452D01*
X158547335Y-100799206D01*
X158547328Y-100799202D01*
X158415917Y-100750189D01*
X158359983Y-100708318D01*
X158335566Y-100642853D01*
X158350418Y-100574580D01*
X158371563Y-100546332D01*
X158485104Y-100432792D01*
X158610051Y-100260816D01*
X158706557Y-100071412D01*
X158772246Y-99869243D01*
X158805500Y-99659287D01*
X158805500Y-99446713D01*
X158791156Y-99356151D01*
X158800110Y-99286861D01*
X158825945Y-99249078D01*
X169153963Y-88921060D01*
X169153966Y-88921059D01*
X169259059Y-88815966D01*
X169341629Y-88692390D01*
X169341630Y-88692389D01*
X169341633Y-88692385D01*
X169398503Y-88555083D01*
X169398505Y-88555079D01*
X169427501Y-88409312D01*
X169427501Y-88260688D01*
X169427501Y-88255578D01*
X169427500Y-88255552D01*
X169427500Y-81142500D01*
X169447185Y-81075461D01*
X169499989Y-81029706D01*
X169551500Y-81018500D01*
X170574948Y-81018500D01*
X170641987Y-81038185D01*
X170662629Y-81054819D01*
X170692150Y-81084340D01*
X170838984Y-81174908D01*
X171002747Y-81229174D01*
X171103823Y-81239500D01*
X171702176Y-81239499D01*
X171702184Y-81239498D01*
X171702187Y-81239498D01*
X171757530Y-81233844D01*
X171803253Y-81229174D01*
X171967016Y-81174908D01*
X172113850Y-81084340D01*
X172227819Y-80970371D01*
X172235764Y-80966032D01*
X172241190Y-80958785D01*
X172265949Y-80949550D01*
X172289142Y-80936886D01*
X172298171Y-80937531D01*
X172306654Y-80934368D01*
X172332474Y-80939984D01*
X172358834Y-80941870D01*
X172367887Y-80947688D01*
X172374927Y-80949220D01*
X172403181Y-80970371D01*
X172422181Y-80989371D01*
X172455666Y-81050694D01*
X172458500Y-81077052D01*
X172458500Y-93328685D01*
X172438815Y-93395724D01*
X172407387Y-93429001D01*
X172353058Y-93468473D01*
X172333205Y-93482898D01*
X172182890Y-93633213D01*
X172057949Y-93805182D01*
X172053484Y-93813946D01*
X172005509Y-93864742D01*
X171937688Y-93881536D01*
X171871553Y-93858998D01*
X171832516Y-93813946D01*
X171828050Y-93805182D01*
X171703109Y-93633213D01*
X171552786Y-93482890D01*
X171380820Y-93357951D01*
X171191414Y-93261444D01*
X171191413Y-93261443D01*
X171191412Y-93261443D01*
X170989243Y-93195754D01*
X170989241Y-93195753D01*
X170989240Y-93195753D01*
X170827957Y-93170208D01*
X170779287Y-93162500D01*
X170566713Y-93162500D01*
X170518042Y-93170208D01*
X170356760Y-93195753D01*
X170154585Y-93261444D01*
X169965179Y-93357951D01*
X169793213Y-93482890D01*
X169642890Y-93633213D01*
X169517951Y-93805179D01*
X169421444Y-93994585D01*
X169355753Y-94196760D01*
X169354291Y-94205993D01*
X169322500Y-94406713D01*
X169322500Y-94619287D01*
X169332534Y-94682644D01*
X169355753Y-94829239D01*
X169421444Y-95031414D01*
X169517951Y-95220820D01*
X169642890Y-95392786D01*
X169793211Y-95543107D01*
X169850593Y-95584796D01*
X169882384Y-95607894D01*
X169925051Y-95663222D01*
X169933500Y-95708212D01*
X169933500Y-101431685D01*
X169913815Y-101498724D01*
X169882387Y-101532001D01*
X169828058Y-101571473D01*
X169808205Y-101585898D01*
X169657890Y-101736213D01*
X169532951Y-101908179D01*
X169436444Y-102097585D01*
X169370753Y-102299760D01*
X169340276Y-102492187D01*
X169337500Y-102509713D01*
X169337500Y-102722287D01*
X169370754Y-102932243D01*
X169409172Y-103050482D01*
X169436444Y-103134414D01*
X169532951Y-103323820D01*
X169657890Y-103495786D01*
X169808213Y-103646109D01*
X169980179Y-103771048D01*
X169980181Y-103771049D01*
X169980184Y-103771051D01*
X170169588Y-103867557D01*
X170371757Y-103933246D01*
X170581713Y-103966500D01*
X170581714Y-103966500D01*
X170794286Y-103966500D01*
X170794287Y-103966500D01*
X171004243Y-103933246D01*
X171206412Y-103867557D01*
X171395816Y-103771051D01*
X171567792Y-103646104D01*
X171681329Y-103532566D01*
X171742648Y-103499084D01*
X171812340Y-103504068D01*
X171868274Y-103545939D01*
X171885189Y-103576917D01*
X171934202Y-103708328D01*
X171934206Y-103708335D01*
X172020452Y-103823544D01*
X172020455Y-103823547D01*
X172135664Y-103909793D01*
X172135671Y-103909797D01*
X172270517Y-103960091D01*
X172270516Y-103960091D01*
X172277444Y-103960835D01*
X172330127Y-103966500D01*
X174125872Y-103966499D01*
X174185483Y-103960091D01*
X174320331Y-103909796D01*
X174435546Y-103823546D01*
X174521796Y-103708331D01*
X174572091Y-103573483D01*
X174578500Y-103513873D01*
X174578500Y-103494500D01*
X174598185Y-103427461D01*
X174650989Y-103381706D01*
X174702500Y-103370500D01*
X190395500Y-103370500D01*
X190462539Y-103390185D01*
X190508294Y-103442989D01*
X190519500Y-103494500D01*
X190519500Y-106049136D01*
X190529582Y-106162548D01*
X190582762Y-106348405D01*
X190582763Y-106348406D01*
X190672266Y-106519751D01*
X190688278Y-106539388D01*
X190794428Y-106669571D01*
X190823303Y-106693115D01*
X190944249Y-106791734D01*
X191115594Y-106881237D01*
X191301448Y-106934417D01*
X191414862Y-106944500D01*
X191414870Y-106944500D01*
X193625130Y-106944500D01*
X193625138Y-106944500D01*
X193738552Y-106934417D01*
X193924406Y-106881237D01*
X194095751Y-106791734D01*
X194245571Y-106669571D01*
X194367734Y-106519751D01*
X194457237Y-106348406D01*
X194510417Y-106162552D01*
X194520500Y-106049138D01*
X194520500Y-101838902D01*
X197520000Y-101838902D01*
X197520000Y-103694000D01*
X198811759Y-103694000D01*
X198798822Y-103725233D01*
X198770000Y-103870131D01*
X198770000Y-104017869D01*
X198798822Y-104162767D01*
X198811759Y-104194000D01*
X197520001Y-104194000D01*
X197520001Y-106049098D01*
X197530078Y-106162460D01*
X197583228Y-106348215D01*
X197672686Y-106519474D01*
X197794784Y-106669215D01*
X197944525Y-106791313D01*
X198115784Y-106880771D01*
X198301538Y-106933920D01*
X198301541Y-106933921D01*
X198414903Y-106943999D01*
X199269999Y-106943999D01*
X199270000Y-106943998D01*
X199270000Y-104652240D01*
X199301233Y-104665178D01*
X199446131Y-104694000D01*
X199593869Y-104694000D01*
X199738767Y-104665178D01*
X199770000Y-104652240D01*
X199770000Y-106943999D01*
X200625092Y-106943999D01*
X200625098Y-106943998D01*
X200738460Y-106933921D01*
X200924215Y-106880771D01*
X201095474Y-106791313D01*
X201245215Y-106669215D01*
X201367313Y-106519474D01*
X201456771Y-106348215D01*
X201509920Y-106162461D01*
X201509921Y-106162458D01*
X201519999Y-106049097D01*
X201520000Y-106049095D01*
X201520000Y-104194000D01*
X200228241Y-104194000D01*
X200241178Y-104162767D01*
X200270000Y-104017869D01*
X200270000Y-103870131D01*
X200241178Y-103725233D01*
X200228241Y-103694000D01*
X201519999Y-103694000D01*
X201519999Y-101838907D01*
X201519998Y-101838901D01*
X201509921Y-101725539D01*
X201456771Y-101539784D01*
X201367313Y-101368525D01*
X201245215Y-101218784D01*
X201095474Y-101096686D01*
X200924215Y-101007228D01*
X200738461Y-100954079D01*
X200738458Y-100954078D01*
X200625097Y-100944000D01*
X199770000Y-100944000D01*
X199770000Y-103235759D01*
X199738767Y-103222822D01*
X199593869Y-103194000D01*
X199446131Y-103194000D01*
X199301233Y-103222822D01*
X199270000Y-103235759D01*
X199270000Y-100944000D01*
X198414907Y-100944000D01*
X198414901Y-100944001D01*
X198301539Y-100954078D01*
X198115784Y-101007228D01*
X197944525Y-101096686D01*
X197794784Y-101218784D01*
X197672686Y-101368525D01*
X197583228Y-101539784D01*
X197530079Y-101725538D01*
X197530078Y-101725541D01*
X197520000Y-101838902D01*
X194520500Y-101838902D01*
X194520500Y-101838862D01*
X194510417Y-101725448D01*
X194457237Y-101539594D01*
X194367734Y-101368249D01*
X194289178Y-101271908D01*
X194245571Y-101218428D01*
X194143887Y-101135516D01*
X194095751Y-101096266D01*
X194055621Y-101075304D01*
X193924405Y-101006762D01*
X193740285Y-100954079D01*
X193738552Y-100953583D01*
X193738551Y-100953582D01*
X193738548Y-100953582D01*
X193649662Y-100945680D01*
X193625138Y-100943500D01*
X191414862Y-100943500D01*
X191409227Y-100944001D01*
X191301451Y-100953582D01*
X191115594Y-101006762D01*
X190944250Y-101096265D01*
X190794428Y-101218428D01*
X190672265Y-101368250D01*
X190582762Y-101539594D01*
X190529582Y-101725450D01*
X190527535Y-101748482D01*
X190501990Y-101813514D01*
X190445342Y-101854413D01*
X190404022Y-101861500D01*
X174702499Y-101861500D01*
X174635460Y-101841815D01*
X174589705Y-101789011D01*
X174578499Y-101737500D01*
X174578499Y-101718129D01*
X174578498Y-101718123D01*
X174572091Y-101658516D01*
X174521797Y-101523671D01*
X174521793Y-101523664D01*
X174435547Y-101408455D01*
X174435544Y-101408452D01*
X174320335Y-101322206D01*
X174320328Y-101322202D01*
X174185482Y-101271908D01*
X174185483Y-101271908D01*
X174125883Y-101265501D01*
X174125881Y-101265500D01*
X174125873Y-101265500D01*
X174125864Y-101265500D01*
X172330129Y-101265500D01*
X172330123Y-101265501D01*
X172270516Y-101271908D01*
X172135671Y-101322202D01*
X172135664Y-101322206D01*
X172020455Y-101408452D01*
X172020452Y-101408455D01*
X171934206Y-101523664D01*
X171934203Y-101523669D01*
X171885189Y-101655083D01*
X171843317Y-101711016D01*
X171777853Y-101735433D01*
X171709580Y-101720581D01*
X171681326Y-101699430D01*
X171567794Y-101585898D01*
X171567792Y-101585896D01*
X171493613Y-101532001D01*
X171450949Y-101476673D01*
X171442500Y-101431685D01*
X171442500Y-95686416D01*
X171462185Y-95619377D01*
X171493614Y-95586098D01*
X171552792Y-95543104D01*
X171703104Y-95392792D01*
X171703106Y-95392788D01*
X171703109Y-95392786D01*
X171828048Y-95220820D01*
X171828047Y-95220820D01*
X171828051Y-95220816D01*
X171832514Y-95212054D01*
X171880488Y-95161259D01*
X171948308Y-95144463D01*
X172014444Y-95166999D01*
X172053486Y-95212056D01*
X172057951Y-95220820D01*
X172182890Y-95392786D01*
X172333213Y-95543109D01*
X172505179Y-95668048D01*
X172505181Y-95668049D01*
X172505184Y-95668051D01*
X172694588Y-95764557D01*
X172896757Y-95830246D01*
X173106713Y-95863500D01*
X173106714Y-95863500D01*
X173319286Y-95863500D01*
X173319287Y-95863500D01*
X173529243Y-95830246D01*
X173731412Y-95764557D01*
X173920816Y-95668051D01*
X173982500Y-95623235D01*
X174092784Y-95543110D01*
X174092784Y-95543109D01*
X174092792Y-95543104D01*
X174206717Y-95429178D01*
X174268036Y-95395696D01*
X174337728Y-95400680D01*
X174393662Y-95442551D01*
X174410577Y-95473528D01*
X174459646Y-95605088D01*
X174459649Y-95605093D01*
X174545809Y-95720187D01*
X174545812Y-95720190D01*
X174660906Y-95806350D01*
X174660913Y-95806354D01*
X174795620Y-95856596D01*
X174795627Y-95856598D01*
X174855155Y-95862999D01*
X174855172Y-95863000D01*
X175503000Y-95863000D01*
X175503000Y-94946012D01*
X175560007Y-94978925D01*
X175687174Y-95013000D01*
X175818826Y-95013000D01*
X175945993Y-94978925D01*
X176003000Y-94946012D01*
X176003000Y-95863000D01*
X176650828Y-95863000D01*
X176650844Y-95862999D01*
X176710372Y-95856598D01*
X176710379Y-95856596D01*
X176845086Y-95806354D01*
X176845093Y-95806350D01*
X176960187Y-95720190D01*
X176960190Y-95720187D01*
X177046350Y-95605093D01*
X177046354Y-95605086D01*
X177096596Y-95470379D01*
X177096598Y-95470372D01*
X177102999Y-95410844D01*
X177103000Y-95410827D01*
X177103000Y-94763000D01*
X176186012Y-94763000D01*
X176218925Y-94705993D01*
X176253000Y-94578826D01*
X176253000Y-94447174D01*
X176218925Y-94320007D01*
X176186012Y-94263000D01*
X177103000Y-94263000D01*
X177103000Y-93615172D01*
X177102999Y-93615155D01*
X177096598Y-93555627D01*
X177096596Y-93555620D01*
X177046354Y-93420913D01*
X177046350Y-93420906D01*
X176960190Y-93305812D01*
X176960187Y-93305809D01*
X176845093Y-93219649D01*
X176845086Y-93219645D01*
X176710379Y-93169403D01*
X176710372Y-93169401D01*
X176650844Y-93163000D01*
X176003000Y-93163000D01*
X176003000Y-94079988D01*
X175945993Y-94047075D01*
X175818826Y-94013000D01*
X175687174Y-94013000D01*
X175560007Y-94047075D01*
X175503000Y-94079988D01*
X175503000Y-93163000D01*
X174855155Y-93163000D01*
X174795627Y-93169401D01*
X174795620Y-93169403D01*
X174660913Y-93219645D01*
X174660906Y-93219649D01*
X174545812Y-93305809D01*
X174545809Y-93305812D01*
X174459649Y-93420906D01*
X174459646Y-93420912D01*
X174410577Y-93552471D01*
X174368705Y-93608404D01*
X174303241Y-93632821D01*
X174234968Y-93617969D01*
X174206714Y-93596818D01*
X174092794Y-93482898D01*
X174092792Y-93482896D01*
X174018613Y-93429001D01*
X173975949Y-93373673D01*
X173967500Y-93328685D01*
X173967500Y-81107052D01*
X173987185Y-81040013D01*
X174003819Y-81019371D01*
X174015633Y-81007557D01*
X174060840Y-80962350D01*
X174151408Y-80815516D01*
X174205674Y-80651753D01*
X174216000Y-80550677D01*
X174215999Y-79977324D01*
X174205674Y-79876247D01*
X174151408Y-79712484D01*
X174060840Y-79565650D01*
X173938850Y-79443660D01*
X173933183Y-79439179D01*
X173934120Y-79437992D01*
X173901152Y-79402916D01*
X173900014Y-79403677D01*
X173814058Y-79275034D01*
X173708968Y-79169944D01*
X173708964Y-79169941D01*
X173585395Y-79087374D01*
X173585386Y-79087369D01*
X173448079Y-79030495D01*
X173448071Y-79030493D01*
X173302315Y-79001500D01*
X173302312Y-79001500D01*
X173153688Y-79001500D01*
X173153685Y-79001500D01*
X173007928Y-79030493D01*
X173007916Y-79030496D01*
X172870616Y-79087367D01*
X172870603Y-79087374D01*
X172747037Y-79169939D01*
X172626939Y-79290035D01*
X172543150Y-79415434D01*
X172527323Y-79434628D01*
X172519951Y-79441932D01*
X172517150Y-79443660D01*
X172403209Y-79557600D01*
X172402774Y-79558032D01*
X172372326Y-79574476D01*
X172341857Y-79591113D01*
X172341560Y-79591091D01*
X172341297Y-79591234D01*
X172306744Y-79588601D01*
X172272165Y-79586129D01*
X172271880Y-79585946D01*
X172271629Y-79585927D01*
X172270369Y-79584975D01*
X172227818Y-79557628D01*
X172113851Y-79443661D01*
X172113850Y-79443660D01*
X171967016Y-79353092D01*
X171803253Y-79298826D01*
X171803251Y-79298825D01*
X171702178Y-79288500D01*
X171103830Y-79288500D01*
X171103812Y-79288501D01*
X171002747Y-79298825D01*
X170838984Y-79353092D01*
X170838981Y-79353093D01*
X170692148Y-79443661D01*
X170662629Y-79473181D01*
X170601306Y-79506666D01*
X170574948Y-79509500D01*
X169551500Y-79509500D01*
X169484461Y-79489815D01*
X169438706Y-79437011D01*
X169427500Y-79385500D01*
X169427500Y-52929446D01*
X169427501Y-52929425D01*
X169427501Y-52774685D01*
X169398507Y-52628929D01*
X169398506Y-52628926D01*
X169398505Y-52628921D01*
X169394051Y-52618169D01*
X169363363Y-52544080D01*
X169341630Y-52491611D01*
X169302705Y-52433356D01*
X169259059Y-52368034D01*
X169259057Y-52368032D01*
X169259055Y-52368029D01*
X169149647Y-52258621D01*
X169149624Y-52258600D01*
X167121973Y-50230949D01*
X167088488Y-50169626D01*
X167091289Y-50114623D01*
X167089149Y-50114110D01*
X167090282Y-50109386D01*
X167090286Y-50109375D01*
X167116261Y-49945376D01*
X167124500Y-49893361D01*
X167124500Y-49674638D01*
X167103285Y-49540695D01*
X167090286Y-49458625D01*
X167022701Y-49250617D01*
X167022701Y-49250616D01*
X166985761Y-49178119D01*
X166923407Y-49055743D01*
X166914662Y-49043707D01*
X166794857Y-48878806D01*
X166640199Y-48724148D01*
X166589161Y-48687067D01*
X166489028Y-48614316D01*
X166446364Y-48558989D01*
X166440385Y-48489376D01*
X166472990Y-48427580D01*
X166489023Y-48413686D01*
X166640199Y-48303852D01*
X166794852Y-48149199D01*
X166794854Y-48149195D01*
X166794857Y-48149193D01*
X166851229Y-48071601D01*
X166923407Y-47972257D01*
X167022701Y-47777383D01*
X167090286Y-47569375D01*
X167117373Y-47398354D01*
X167124500Y-47353361D01*
X167124500Y-47169646D01*
X167775000Y-47169646D01*
X167775000Y-47398353D01*
X167810778Y-47624246D01*
X167810778Y-47624249D01*
X167881450Y-47841755D01*
X167947946Y-47972260D01*
X167985283Y-48045538D01*
X168119714Y-48230566D01*
X168281434Y-48392286D01*
X168330012Y-48427580D01*
X168338411Y-48433682D01*
X168381076Y-48489012D01*
X168387055Y-48558626D01*
X168354449Y-48620421D01*
X168338413Y-48634316D01*
X168281434Y-48675714D01*
X168281432Y-48675716D01*
X168281431Y-48675716D01*
X168119716Y-48837431D01*
X168119716Y-48837432D01*
X168119714Y-48837434D01*
X168061980Y-48916896D01*
X167985283Y-49022461D01*
X167881450Y-49226244D01*
X167810778Y-49443750D01*
X167810778Y-49443753D01*
X167792070Y-49561870D01*
X167775000Y-49669646D01*
X167775000Y-49898354D01*
X167782448Y-49945376D01*
X167810778Y-50124246D01*
X167810778Y-50124249D01*
X167881450Y-50341755D01*
X167976946Y-50529175D01*
X167985283Y-50545538D01*
X168119714Y-50730566D01*
X168281434Y-50892286D01*
X168319000Y-50919579D01*
X168456674Y-51019606D01*
X168499339Y-51074936D01*
X168502443Y-51083911D01*
X168502491Y-51084072D01*
X168559366Y-51221381D01*
X168559372Y-51221392D01*
X168641942Y-51344968D01*
X168641943Y-51344969D01*
X171421181Y-54124205D01*
X171454666Y-54185528D01*
X171457500Y-54211886D01*
X171457500Y-68121500D01*
X171437815Y-68188539D01*
X171385011Y-68234294D01*
X171333505Y-68245500D01*
X171314132Y-68245500D01*
X171314123Y-68245501D01*
X171254516Y-68251908D01*
X171119671Y-68302202D01*
X171119664Y-68302206D01*
X171004455Y-68388452D01*
X171004452Y-68388455D01*
X170918206Y-68503664D01*
X170918202Y-68503671D01*
X170867908Y-68638517D01*
X170861501Y-68698116D01*
X170861500Y-68698135D01*
X170861500Y-70493870D01*
X170861501Y-70493876D01*
X170867908Y-70553483D01*
X170918202Y-70688328D01*
X170918206Y-70688335D01*
X171004452Y-70803544D01*
X171004455Y-70803547D01*
X171119664Y-70889793D01*
X171119671Y-70889797D01*
X171254517Y-70940091D01*
X171254516Y-70940091D01*
X171261444Y-70940835D01*
X171314127Y-70946500D01*
X172444112Y-70946499D01*
X172511151Y-70966184D01*
X172531793Y-70982818D01*
X173965600Y-72416624D01*
X173965621Y-72416647D01*
X174075029Y-72526055D01*
X174075032Y-72526057D01*
X174075034Y-72526059D01*
X174157605Y-72581230D01*
X174198611Y-72608630D01*
X174279045Y-72641946D01*
X174335920Y-72665505D01*
X174335929Y-72665506D01*
X174335930Y-72665507D01*
X174360103Y-72670315D01*
X174360110Y-72670316D01*
X174481686Y-72694501D01*
X174481688Y-72694501D01*
X174636426Y-72694501D01*
X174636446Y-72694500D01*
X190459500Y-72694500D01*
X190526539Y-72714185D01*
X190572294Y-72766989D01*
X190583500Y-72818500D01*
X190583500Y-74045136D01*
X190593582Y-74158548D01*
X190646762Y-74344405D01*
X190684553Y-74416751D01*
X190736266Y-74515751D01*
X190780267Y-74569713D01*
X190858428Y-74665571D01*
X190933339Y-74726652D01*
X191008249Y-74787734D01*
X191179594Y-74877237D01*
X191365448Y-74930417D01*
X191478862Y-74940500D01*
X191478870Y-74940500D01*
X193689130Y-74940500D01*
X193689138Y-74940500D01*
X193802552Y-74930417D01*
X193988406Y-74877237D01*
X194159751Y-74787734D01*
X194309571Y-74665571D01*
X194431734Y-74515751D01*
X194521237Y-74344406D01*
X194574417Y-74158552D01*
X194584500Y-74045138D01*
X194584500Y-69834902D01*
X197584000Y-69834902D01*
X197584000Y-71690000D01*
X198875759Y-71690000D01*
X198862822Y-71721233D01*
X198834000Y-71866131D01*
X198834000Y-72013869D01*
X198862822Y-72158767D01*
X198875759Y-72190000D01*
X197584001Y-72190000D01*
X197584001Y-74045098D01*
X197594078Y-74158460D01*
X197647228Y-74344215D01*
X197736686Y-74515474D01*
X197858784Y-74665215D01*
X198008525Y-74787313D01*
X198179784Y-74876771D01*
X198365538Y-74929920D01*
X198365541Y-74929921D01*
X198478903Y-74939999D01*
X199333999Y-74939999D01*
X199334000Y-74939998D01*
X199334000Y-72648240D01*
X199365233Y-72661178D01*
X199510131Y-72690000D01*
X199657869Y-72690000D01*
X199802767Y-72661178D01*
X199834000Y-72648240D01*
X199834000Y-74939999D01*
X200689092Y-74939999D01*
X200689098Y-74939998D01*
X200802460Y-74929921D01*
X200988215Y-74876771D01*
X201159474Y-74787313D01*
X201309215Y-74665215D01*
X201431313Y-74515474D01*
X201520771Y-74344215D01*
X201573920Y-74158461D01*
X201573921Y-74158458D01*
X201583999Y-74045097D01*
X201584000Y-74045095D01*
X201584000Y-72190000D01*
X200292241Y-72190000D01*
X200305178Y-72158767D01*
X200334000Y-72013869D01*
X200334000Y-71866131D01*
X200305178Y-71721233D01*
X200292241Y-71690000D01*
X201583999Y-71690000D01*
X201583999Y-69834907D01*
X201583998Y-69834901D01*
X201573921Y-69721539D01*
X201520771Y-69535784D01*
X201431313Y-69364525D01*
X201309215Y-69214784D01*
X201159474Y-69092686D01*
X200988215Y-69003228D01*
X200802461Y-68950079D01*
X200802458Y-68950078D01*
X200689097Y-68940000D01*
X199834000Y-68940000D01*
X199834000Y-71231759D01*
X199802767Y-71218822D01*
X199657869Y-71190000D01*
X199510131Y-71190000D01*
X199365233Y-71218822D01*
X199334000Y-71231759D01*
X199334000Y-68940000D01*
X198478907Y-68940000D01*
X198478901Y-68940001D01*
X198365539Y-68950078D01*
X198179784Y-69003228D01*
X198008525Y-69092686D01*
X197858784Y-69214784D01*
X197736686Y-69364525D01*
X197647228Y-69535784D01*
X197594079Y-69721538D01*
X197594078Y-69721541D01*
X197584000Y-69834902D01*
X194584500Y-69834902D01*
X194584500Y-69834862D01*
X194574417Y-69721448D01*
X194521237Y-69535594D01*
X194431734Y-69364249D01*
X194362839Y-69279757D01*
X194309571Y-69214428D01*
X194217700Y-69139518D01*
X194159751Y-69092266D01*
X194131646Y-69077585D01*
X193988405Y-69002762D01*
X193804285Y-68950079D01*
X193802552Y-68949583D01*
X193802551Y-68949582D01*
X193802548Y-68949582D01*
X193713662Y-68941680D01*
X193689138Y-68939500D01*
X191478862Y-68939500D01*
X191473227Y-68940001D01*
X191365451Y-68949582D01*
X191179594Y-69002762D01*
X191008250Y-69092265D01*
X190858428Y-69214428D01*
X190736265Y-69364250D01*
X190646762Y-69535594D01*
X190593582Y-69721451D01*
X190587357Y-69791475D01*
X190584129Y-69827793D01*
X190583500Y-69834863D01*
X190583500Y-71061500D01*
X190563815Y-71128539D01*
X190511011Y-71174294D01*
X190459500Y-71185500D01*
X174924867Y-71185500D01*
X174857828Y-71165815D01*
X174812073Y-71113011D01*
X174802129Y-71043853D01*
X174831154Y-70980297D01*
X174889932Y-70942523D01*
X174905469Y-70939027D01*
X175068243Y-70913246D01*
X175270412Y-70847557D01*
X175459816Y-70751051D01*
X175541502Y-70691703D01*
X175631786Y-70626109D01*
X175631788Y-70626106D01*
X175631792Y-70626104D01*
X175782104Y-70475792D01*
X175782106Y-70475788D01*
X175782109Y-70475786D01*
X175907048Y-70303820D01*
X175907047Y-70303820D01*
X175907051Y-70303816D01*
X176003557Y-70114412D01*
X176069246Y-69912243D01*
X176102500Y-69702287D01*
X176102500Y-69489713D01*
X176069246Y-69279757D01*
X176003557Y-69077588D01*
X175907051Y-68888184D01*
X175907049Y-68888181D01*
X175907048Y-68888179D01*
X175782109Y-68716213D01*
X175631794Y-68565898D01*
X175631792Y-68565896D01*
X175557613Y-68512001D01*
X175514949Y-68456673D01*
X175506500Y-68411685D01*
X175506500Y-52249687D01*
X175506499Y-52249683D01*
X175502824Y-52231208D01*
X175477505Y-52103920D01*
X175420629Y-51966610D01*
X175396392Y-51930337D01*
X175338059Y-51843034D01*
X175338054Y-51843028D01*
X175228647Y-51733621D01*
X175228624Y-51733600D01*
X170775975Y-47280949D01*
X170775971Y-47280946D01*
X170734571Y-47253283D01*
X170689766Y-47199670D01*
X170680989Y-47169579D01*
X170662098Y-47050307D01*
X170645222Y-46943755D01*
X170645221Y-46943751D01*
X170645221Y-46943750D01*
X170574549Y-46726244D01*
X170470716Y-46522461D01*
X170336286Y-46337434D01*
X170174566Y-46175714D01*
X169989538Y-46041283D01*
X169905817Y-45998625D01*
X169785755Y-45937450D01*
X169568248Y-45866778D01*
X169398826Y-45839944D01*
X169342354Y-45831000D01*
X169113646Y-45831000D01*
X169038349Y-45842926D01*
X168887753Y-45866778D01*
X168887750Y-45866778D01*
X168670244Y-45937450D01*
X168466461Y-46041283D01*
X168360896Y-46117980D01*
X168281434Y-46175714D01*
X168281432Y-46175716D01*
X168281431Y-46175716D01*
X168119716Y-46337431D01*
X168119716Y-46337432D01*
X168119714Y-46337434D01*
X168061980Y-46416896D01*
X167985283Y-46522461D01*
X167881450Y-46726244D01*
X167810778Y-46943750D01*
X167810778Y-46943753D01*
X167775000Y-47169646D01*
X167124500Y-47169646D01*
X167124500Y-47134638D01*
X167094266Y-46943755D01*
X167090286Y-46918625D01*
X167056493Y-46814621D01*
X167022702Y-46710619D01*
X167022701Y-46710616D01*
X166988315Y-46643132D01*
X166923407Y-46515743D01*
X166915147Y-46504374D01*
X166794857Y-46338806D01*
X166640199Y-46184148D01*
X166628593Y-46175716D01*
X166489028Y-46074316D01*
X166446364Y-46018989D01*
X166440385Y-45949376D01*
X166472990Y-45887580D01*
X166489023Y-45873686D01*
X166640199Y-45763852D01*
X166794852Y-45609199D01*
X166794854Y-45609195D01*
X166794857Y-45609193D01*
X166851229Y-45531601D01*
X166923407Y-45432257D01*
X167022701Y-45237383D01*
X167090286Y-45029375D01*
X167110764Y-44900081D01*
X167124500Y-44813361D01*
X167124500Y-44594638D01*
X167102224Y-44454000D01*
X167090286Y-44378625D01*
X167042197Y-44230619D01*
X167022702Y-44170619D01*
X167022701Y-44170616D01*
X166988315Y-44103132D01*
X166923407Y-43975743D01*
X166915147Y-43964374D01*
X166794857Y-43798806D01*
X166640199Y-43644148D01*
X166600377Y-43615216D01*
X166489028Y-43534316D01*
X166446364Y-43478989D01*
X166440385Y-43409376D01*
X166472990Y-43347580D01*
X166489023Y-43333686D01*
X166640199Y-43223852D01*
X166794852Y-43069199D01*
X166794854Y-43069195D01*
X166794857Y-43069193D01*
X166851229Y-42991601D01*
X166923407Y-42892257D01*
X167022701Y-42697383D01*
X167090286Y-42489375D01*
X167107912Y-42378082D01*
X167124500Y-42273361D01*
X167124500Y-42054638D01*
X167104595Y-41928971D01*
X167090286Y-41838625D01*
X167022701Y-41630617D01*
X167022701Y-41630616D01*
X166988315Y-41563132D01*
X166923407Y-41435743D01*
X166915147Y-41424374D01*
X166794857Y-41258806D01*
X166640193Y-41104142D01*
X166463260Y-40975595D01*
X166463259Y-40975594D01*
X166463257Y-40975593D01*
X166400825Y-40943782D01*
X166268383Y-40876298D01*
X166268380Y-40876297D01*
X166060376Y-40808714D01*
X165844361Y-40774500D01*
X165844356Y-40774500D01*
X163847644Y-40774500D01*
X163847639Y-40774500D01*
X163631623Y-40808714D01*
X163423619Y-40876297D01*
X163423616Y-40876298D01*
X163228739Y-40975595D01*
X163051806Y-41104142D01*
X162897142Y-41258806D01*
X162768595Y-41435739D01*
X162669298Y-41630616D01*
X162669297Y-41630619D01*
X162601714Y-41838623D01*
X162567500Y-42054638D01*
X162567500Y-42273361D01*
X162601714Y-42489376D01*
X162669297Y-42697380D01*
X162669298Y-42697383D01*
X162721473Y-42799779D01*
X162758670Y-42872783D01*
X162768595Y-42892260D01*
X162897142Y-43069193D01*
X163051806Y-43223857D01*
X163202969Y-43333682D01*
X163245635Y-43389011D01*
X163251614Y-43458625D01*
X163219009Y-43520420D01*
X163202969Y-43534318D01*
X163051806Y-43644142D01*
X162897142Y-43798806D01*
X162768595Y-43975739D01*
X162669298Y-44170616D01*
X162669297Y-44170619D01*
X162601714Y-44378623D01*
X162567500Y-44594638D01*
X162567500Y-44813361D01*
X162601714Y-45029376D01*
X162669297Y-45237380D01*
X162669298Y-45237383D01*
X162736782Y-45369825D01*
X162768461Y-45431998D01*
X162768595Y-45432260D01*
X162897142Y-45609193D01*
X163051806Y-45763857D01*
X163202969Y-45873682D01*
X163245635Y-45929011D01*
X163251614Y-45998625D01*
X163219009Y-46060420D01*
X163202969Y-46074318D01*
X163051806Y-46184142D01*
X162897142Y-46338806D01*
X162768595Y-46515739D01*
X162669298Y-46710616D01*
X162669297Y-46710619D01*
X162601714Y-46918623D01*
X162567500Y-47134638D01*
X162567500Y-47353361D01*
X162601714Y-47569376D01*
X162669297Y-47777380D01*
X162669298Y-47777383D01*
X162768595Y-47972260D01*
X162897142Y-48149193D01*
X163051806Y-48303857D01*
X163202969Y-48413682D01*
X163245635Y-48469011D01*
X163251614Y-48538625D01*
X163219009Y-48600420D01*
X163202969Y-48614318D01*
X163051806Y-48724142D01*
X162897142Y-48878806D01*
X162768595Y-49055739D01*
X162669298Y-49250616D01*
X162669297Y-49250619D01*
X162601714Y-49458623D01*
X162567500Y-49674638D01*
X162567500Y-49893361D01*
X162601714Y-50109376D01*
X162669297Y-50317380D01*
X162669298Y-50317383D01*
X162708649Y-50394612D01*
X162766121Y-50507406D01*
X162768595Y-50512260D01*
X162897142Y-50689193D01*
X163051806Y-50843857D01*
X163202969Y-50953682D01*
X163245635Y-51009011D01*
X163251614Y-51078625D01*
X163219009Y-51140420D01*
X163202969Y-51154318D01*
X163051806Y-51264142D01*
X162897150Y-51418798D01*
X162897148Y-51418801D01*
X162824795Y-51518387D01*
X162769468Y-51561051D01*
X162724479Y-51569500D01*
X160961683Y-51569500D01*
X160815927Y-51598493D01*
X160815919Y-51598495D01*
X160678608Y-51655371D01*
X160555035Y-51737939D01*
X160555034Y-51737940D01*
X160514788Y-51778187D01*
X160449941Y-51843034D01*
X160449939Y-51843036D01*
X151813943Y-60479030D01*
X151813942Y-60479031D01*
X151731372Y-60602607D01*
X151731366Y-60602618D01*
X151674496Y-60739916D01*
X151674493Y-60739926D01*
X151645499Y-60885685D01*
X151645499Y-61040425D01*
X151645500Y-61040446D01*
X151645500Y-69740112D01*
X151625815Y-69807151D01*
X151609181Y-69827793D01*
X149381861Y-72055112D01*
X149320538Y-72088597D01*
X149250846Y-72083613D01*
X149194913Y-72041741D01*
X149171708Y-71986830D01*
X149145246Y-71819757D01*
X149079557Y-71617588D01*
X148983051Y-71428184D01*
X148983049Y-71428181D01*
X148983048Y-71428179D01*
X148858109Y-71256213D01*
X148707786Y-71105890D01*
X148535820Y-70980951D01*
X148346414Y-70884444D01*
X148346413Y-70884443D01*
X148346412Y-70884443D01*
X148144243Y-70818754D01*
X148144241Y-70818753D01*
X148144240Y-70818753D01*
X147982957Y-70793208D01*
X147934287Y-70785500D01*
X147721713Y-70785500D01*
X147673042Y-70793208D01*
X147511760Y-70818753D01*
X147309585Y-70884444D01*
X147120179Y-70980951D01*
X146948213Y-71105890D01*
X146797890Y-71256213D01*
X146672951Y-71428179D01*
X146576444Y-71617585D01*
X146510753Y-71819760D01*
X146477500Y-72029713D01*
X128889870Y-72029713D01*
X129013263Y-71329915D01*
X129013920Y-71326485D01*
X129274953Y-70062301D01*
X129275727Y-70058809D01*
X129328795Y-69834901D01*
X129573411Y-68802778D01*
X129574290Y-68799300D01*
X129596553Y-68716213D01*
X129908376Y-67552474D01*
X129909353Y-67549032D01*
X129990995Y-67276331D01*
X130279564Y-66312441D01*
X130280644Y-66309018D01*
X130686651Y-65083757D01*
X130687835Y-65080351D01*
X130854843Y-64621500D01*
X131129320Y-63867380D01*
X131130574Y-63864084D01*
X131607169Y-62664424D01*
X131608520Y-62661162D01*
X132119821Y-61475830D01*
X132121240Y-61472669D01*
X132666798Y-60302716D01*
X132668338Y-60299536D01*
X133247650Y-59146031D01*
X133249305Y-59142852D01*
X133288160Y-59070792D01*
X133861940Y-58006649D01*
X133863690Y-58003517D01*
X134509108Y-56885618D01*
X134510899Y-56882618D01*
X135188580Y-55783929D01*
X135190467Y-55780968D01*
X135899836Y-54702426D01*
X135901738Y-54699622D01*
X136642233Y-53642086D01*
X136644256Y-53639284D01*
X137013354Y-53143499D01*
X139771500Y-53143499D01*
X139771500Y-53536500D01*
X139805751Y-53927995D01*
X139805751Y-53927999D01*
X139873991Y-54315005D01*
X139873993Y-54315016D01*
X139878174Y-54330619D01*
X139975707Y-54694616D01*
X139975708Y-54694618D01*
X139975708Y-54694619D01*
X140003584Y-54771208D01*
X140077162Y-54973361D01*
X140110124Y-55063921D01*
X140276195Y-55420062D01*
X140276207Y-55420086D01*
X140472695Y-55760412D01*
X140472704Y-55760427D01*
X140698115Y-56082347D01*
X140872431Y-56290087D01*
X140950722Y-56383391D01*
X141228609Y-56661278D01*
X141245843Y-56675739D01*
X141529652Y-56913884D01*
X141529658Y-56913888D01*
X141529659Y-56913889D01*
X141851579Y-57139300D01*
X142191920Y-57335796D01*
X142191934Y-57335802D01*
X142191937Y-57335804D01*
X142548078Y-57501875D01*
X142548083Y-57501876D01*
X142548092Y-57501881D01*
X142917384Y-57636293D01*
X143296985Y-57738007D01*
X143684007Y-57806249D01*
X144075502Y-57840499D01*
X144075503Y-57840500D01*
X144075504Y-57840500D01*
X144468497Y-57840500D01*
X144468497Y-57840499D01*
X144859993Y-57806249D01*
X145247015Y-57738007D01*
X145626616Y-57636293D01*
X145995908Y-57501881D01*
X146352080Y-57335796D01*
X146692421Y-57139300D01*
X147014341Y-56913889D01*
X147315391Y-56661278D01*
X147593278Y-56383391D01*
X147845889Y-56082341D01*
X148071300Y-55760421D01*
X148267796Y-55420080D01*
X148433881Y-55063908D01*
X148568293Y-54694616D01*
X148670007Y-54315015D01*
X148738249Y-53927993D01*
X148772500Y-53536496D01*
X148772500Y-53143504D01*
X148738249Y-52752007D01*
X148720152Y-52649376D01*
X148703292Y-52553757D01*
X148670007Y-52364985D01*
X148568293Y-51985384D01*
X148433881Y-51616092D01*
X148433876Y-51616083D01*
X148433875Y-51616078D01*
X148267804Y-51259937D01*
X148267792Y-51259913D01*
X148206827Y-51154319D01*
X148071300Y-50919579D01*
X147845889Y-50597659D01*
X147845888Y-50597658D01*
X147845884Y-50597652D01*
X147661579Y-50378007D01*
X147593278Y-50296609D01*
X147315391Y-50018722D01*
X147227981Y-49945376D01*
X147014347Y-49766115D01*
X146692427Y-49540704D01*
X146692424Y-49540702D01*
X146692421Y-49540700D01*
X146550263Y-49458625D01*
X146352086Y-49344207D01*
X146352062Y-49344195D01*
X145995921Y-49178124D01*
X145995910Y-49178120D01*
X145995908Y-49178119D01*
X145626616Y-49043707D01*
X145382832Y-48978385D01*
X145247016Y-48941993D01*
X145247005Y-48941991D01*
X144859997Y-48873751D01*
X144468500Y-48839500D01*
X144468496Y-48839500D01*
X144075504Y-48839500D01*
X144075499Y-48839500D01*
X143684004Y-48873751D01*
X143684000Y-48873751D01*
X143296994Y-48941991D01*
X143296983Y-48941993D01*
X143161168Y-48978385D01*
X142917384Y-49043707D01*
X142917381Y-49043708D01*
X142917380Y-49043708D01*
X142548078Y-49178124D01*
X142191937Y-49344195D01*
X142191913Y-49344207D01*
X141851587Y-49540695D01*
X141851572Y-49540704D01*
X141529652Y-49766115D01*
X141228606Y-50018724D01*
X140950724Y-50296606D01*
X140698115Y-50597652D01*
X140472704Y-50919572D01*
X140472695Y-50919587D01*
X140276207Y-51259913D01*
X140276195Y-51259937D01*
X140110124Y-51616078D01*
X139986421Y-51955949D01*
X139975707Y-51985384D01*
X139940364Y-52117285D01*
X139873993Y-52364983D01*
X139873991Y-52364994D01*
X139805751Y-52752000D01*
X139805751Y-52752004D01*
X139771500Y-53143499D01*
X137013354Y-53143499D01*
X137415133Y-52603817D01*
X137417242Y-52601068D01*
X138217909Y-51588458D01*
X138220116Y-51585749D01*
X139049913Y-50596835D01*
X139052184Y-50594207D01*
X139910379Y-49629863D01*
X139912727Y-49627301D01*
X140798591Y-48688340D01*
X140801037Y-48685822D01*
X141713822Y-47773037D01*
X141716340Y-47770591D01*
X142655301Y-46884727D01*
X142657863Y-46882379D01*
X143622207Y-46024184D01*
X143624835Y-46021913D01*
X144613749Y-45192116D01*
X144616458Y-45189909D01*
X145629068Y-44389242D01*
X145631817Y-44387133D01*
X146667284Y-43616256D01*
X146670086Y-43614233D01*
X147727622Y-42873738D01*
X147730426Y-42871836D01*
X148808968Y-42162467D01*
X148811929Y-42160580D01*
X149910618Y-41482899D01*
X149913618Y-41481108D01*
X151031534Y-40835680D01*
X151034649Y-40833940D01*
X152170872Y-40221294D01*
X152174031Y-40219650D01*
X153327536Y-39640338D01*
X153330716Y-39638798D01*
X154500669Y-39093240D01*
X154503830Y-39091821D01*
X155689162Y-38580520D01*
X155692424Y-38579169D01*
X156892084Y-38102574D01*
X156895380Y-38101320D01*
X158108374Y-37659826D01*
X158111734Y-37658658D01*
X159337034Y-37252638D01*
X159340441Y-37251564D01*
X160577059Y-36881345D01*
X160580474Y-36880376D01*
X161827319Y-36546285D01*
X161830778Y-36545411D01*
X163086837Y-36247720D01*
X163090301Y-36246953D01*
X164354485Y-35985920D01*
X164357915Y-35985263D01*
X165629152Y-35761110D01*
X165632668Y-35760542D01*
X166909923Y-35573451D01*
X166913378Y-35572996D01*
X168195532Y-35423135D01*
X168199090Y-35422772D01*
X169484969Y-35310272D01*
X169488550Y-35310011D01*
X170777154Y-35234959D01*
X170780721Y-35234802D01*
X171913965Y-35201828D01*
X172071018Y-35197259D01*
X172074624Y-35197207D01*
X173365376Y-35197207D01*
X173368982Y-35197259D01*
G37*
%TD.AperFunction*%
%TD*%
M02*
